<?xml version="1.0" encoding="UTF-8" standalone="no"?>
<!-- Created with Inkscape (http://www.inkscape.org/) -->

<svg
   xmlns:dc="http://purl.org/dc/elements/1.1/"
   xmlns:cc="http://creativecommons.org/ns#"
   xmlns:rdf="http://www.w3.org/1999/02/22-rdf-syntax-ns#"
   xmlns:svg="http://www.w3.org/2000/svg"
   xmlns="http://www.w3.org/2000/svg"
   xmlns:sodipodi="http://sodipodi.sourceforge.net/DTD/sodipodi-0.dtd"
   xmlns:inkscape="http://www.inkscape.org/namespaces/inkscape"
   width="2125.9841"
   height="1062.9921"
   id="svg2"
   version="1.1"
   inkscape:version="0.48.4 r9939"
   sodipodi:docname="Gear collection - circular pitch 60.0 - pressure angle 17.5.svg">
  <sodipodi:namedview
     id="base"
     pagecolor="#ffffff"
     bordercolor="#666666"
     borderopacity="1.0"
     inkscape:pageopacity="0.0"
     inkscape:pageshadow="2"
     inkscape:zoom="0.67168893"
     inkscape:cx="1062.9921"
     inkscape:cy="531.49603"
     inkscape:document-units="mm"
     inkscape:current-layer="layer1"
     showgrid="false"
     units="mm"
     borderlayer="true"
     inkscape:showpageshadow="true"
     inkscape:window-width="1920"
     inkscape:window-height="1028"
     inkscape:window-x="-4"
     inkscape:window-y="-4"
     inkscape:window-maximized="1" />
  <defs
     id="defs4" />
  <metadata
     id="metadata7">
    <rdf:RDF>
      <cc:Work
         rdf:about="">
        <dc:format>image/svg+xml</dc:format>
        <dc:type
           rdf:resource="http://purl.org/dc/dcmitype/StillImage" />
      </cc:Work>
    </rdf:RDF>
  </metadata>
  <g
     transform="translate(0,10.629915)"
     id="layer1"
     inkscape:groupmode="layer"
     inkscape:label="Layer 1">
    <g
       id="g3007"
       transform="translate(1047.9717,513.06729)"
       inkscape:label="Gear50">
      <path
         id="path3009"
         d="M457.985,-18.687L477.229,-14.998L496.495,-8.248L496.495,8.248L477.229,14.998L457.985,18.687L456.716,38.861L475.346,44.933L493.614,54.045L491.546,70.410L471.586,74.692L452.032,75.940L448.244,95.797L465.966,104.156L482.948,115.485L478.845,131.462L458.506,133.208L438.950,131.996L432.703,151.221L449.237,161.735L464.666,175.103L458.593,190.441L438.196,189.624L418.945,185.970L410.338,204.261L425.424,216.764L439.055,231.961L431.108,246.416L410.974,243.049L392.333,237.011L381.502,254.079L394.902,268.375L406.521,285.160L396.825,298.505L377.271,292.642L359.534,284.315L346.649,299.890L358.152,315.753L367.575,333.862L356.283,345.887L337.619,337.619L321.065,327.134L306.329,340.972L315.753,358.152L322.833,377.299L310.123,387.813L292.642,377.271L277.532,364.795L261.178,376.677L268.375,394.902L272.999,414.785L259.071,423.624L243.049,410.974L229.623,396.703L211.909,406.441L216.764,425.424L218.860,445.730L203.934,452.754L189.624,438.196L178.092,422.354L159.297,429.795L161.735,449.237L161.269,469.646L145.581,474.743L133.208,458.506L123.753,441.344L104.174,446.371L104.156,465.966L101.136,486.155L84.932,489.246L74.692,471.586L67.462,453.375L47.407,455.908L44.933,475.346L39.407,494.997L22.944,496.033L14.998,477.229L10.107,458.255L-10.107,458.255L-14.998,477.229L-22.944,496.033L-39.407,494.997L-44.933,475.346L-47.407,455.908L-67.462,453.375L-74.692,471.586L-84.932,489.246L-101.136,486.155L-104.156,465.966L-104.174,446.371L-123.753,441.344L-133.208,458.506L-145.581,474.743L-161.269,469.646L-161.735,449.237L-159.297,429.795L-178.092,422.354L-189.624,438.196L-203.934,452.754L-218.860,445.730L-216.764,425.424L-211.909,406.441L-229.623,396.703L-243.049,410.974L-259.071,423.624L-272.999,414.785L-268.375,394.902L-261.178,376.677L-277.532,364.795L-292.642,377.271L-310.123,387.813L-322.833,377.299L-315.753,358.152L-306.329,340.972L-321.065,327.134L-337.619,337.619L-356.283,345.887L-367.575,333.862L-358.152,315.753L-346.649,299.890L-359.534,284.315L-377.271,292.642L-396.825,298.505L-406.521,285.160L-394.902,268.375L-381.502,254.079L-392.333,237.011L-410.974,243.049L-431.108,246.416L-439.055,231.961L-425.424,216.764L-410.338,204.261L-418.945,185.970L-438.196,189.624L-458.593,190.441L-464.666,175.103L-449.237,161.735L-432.703,151.221L-438.950,131.996L-458.506,133.208L-478.845,131.462L-482.948,115.485L-465.966,104.156L-448.244,95.797L-452.032,75.940L-471.586,74.692L-491.546,70.410L-493.614,54.045L-475.346,44.933L-456.716,38.861L-457.985,18.687L-477.229,14.998L-496.495,8.248L-496.495,-8.248L-477.229,-14.998L-457.985,-18.687L-456.716,-38.861L-475.346,-44.933L-493.614,-54.045L-491.546,-70.410L-471.586,-74.692L-452.032,-75.940L-448.244,-95.797L-465.966,-104.156L-482.948,-115.485L-478.845,-131.462L-458.506,-133.208L-438.950,-131.996L-432.703,-151.221L-449.237,-161.735L-464.666,-175.103L-458.593,-190.441L-438.196,-189.624L-418.945,-185.970L-410.338,-204.261L-425.424,-216.764L-439.055,-231.961L-431.108,-246.416L-410.974,-243.049L-392.333,-237.011L-381.502,-254.079L-394.902,-268.375L-406.521,-285.160L-396.825,-298.505L-377.271,-292.642L-359.534,-284.315L-346.649,-299.890L-358.152,-315.753L-367.575,-333.862L-356.283,-345.887L-337.619,-337.619L-321.065,-327.134L-306.329,-340.972L-315.753,-358.152L-322.833,-377.299L-310.123,-387.813L-292.642,-377.271L-277.532,-364.795L-261.178,-376.677L-268.375,-394.902L-272.999,-414.785L-259.071,-423.624L-243.049,-410.974L-229.623,-396.703L-211.909,-406.441L-216.764,-425.424L-218.860,-445.730L-203.934,-452.754L-189.624,-438.196L-178.092,-422.354L-159.297,-429.795L-161.735,-449.237L-161.269,-469.646L-145.581,-474.743L-133.208,-458.506L-123.753,-441.344L-104.174,-446.371L-104.156,-465.966L-101.136,-486.155L-84.932,-489.246L-74.692,-471.586L-67.462,-453.375L-47.407,-455.908L-44.933,-475.346L-39.407,-494.997L-22.944,-496.033L-14.998,-477.229L-10.107,-458.255L10.107,-458.255L14.998,-477.229L22.944,-496.033L39.407,-494.997L44.933,-475.346L47.407,-455.908L67.462,-453.375L74.692,-471.586L84.932,-489.246L101.136,-486.155L104.156,-465.966L104.174,-446.371L123.753,-441.344L133.208,-458.506L145.581,-474.743L161.269,-469.646L161.735,-449.237L159.297,-429.795L178.092,-422.354L189.624,-438.196L203.934,-452.754L218.860,-445.730L216.764,-425.424L211.909,-406.441L229.623,-396.703L243.049,-410.974L259.071,-423.624L272.999,-414.785L268.375,-394.902L261.178,-376.677L277.532,-364.795L292.642,-377.271L310.123,-387.813L322.833,-377.299L315.753,-358.152L306.329,-340.972L321.065,-327.134L337.619,-337.619L356.283,-345.887L367.575,-333.862L358.152,-315.753L346.649,-299.890L359.534,-284.315L377.271,-292.642L396.825,-298.505L406.521,-285.160L394.902,-268.375L381.502,-254.079L392.333,-237.011L410.974,-243.049L431.108,-246.416L439.055,-231.961L425.424,-216.764L410.338,-204.261L418.945,-185.970L438.196,-189.624L458.593,-190.441L464.666,-175.103L449.237,-161.735L432.703,-151.221L438.950,-131.996L458.506,-133.208L478.845,-131.462L482.948,-115.485L465.966,-104.156L448.244,-95.797L452.032,-75.940L471.586,-74.692L491.546,-70.410L493.614,-54.045L475.346,-44.933L456.716,-38.861z"
         style="stroke:#000000;fill:none" />
    </g>
    <g
       id="g3072"
       transform="translate(1047.9717,513.06729)"
       inkscape:label="Gear10">
      <path
         id="path3074"
         d="M75.332,-12.695L89.807,-15.134L94.317,-14.938L114.415,-6.354L114.415,6.354L94.317,14.938L89.807,15.134L75.332,12.695L68.407,34.009L81.551,40.544L85.085,43.353L96.299,62.111L88.829,72.392L67.524,67.524L63.760,65.031L53.483,54.549L35.352,67.722L42.145,80.735L43.353,85.085L41.399,106.852L29.313,110.779L14.938,94.317L13.359,90.088L11.206,75.568L-11.206,75.568L-13.359,90.088L-14.938,94.317L-29.313,110.779L-41.399,106.852L-43.353,85.085L-42.145,80.735L-35.352,67.722L-53.483,54.549L-63.760,65.031L-67.524,67.524L-88.829,72.392L-96.299,62.111L-85.085,43.353L-81.551,40.544L-68.407,34.009L-75.332,12.695L-89.807,15.134L-94.317,14.938L-114.415,6.354L-114.415,-6.354L-94.317,-14.938L-89.807,-15.134L-75.332,-12.695L-68.407,-34.009L-81.551,-40.544L-85.085,-43.353L-96.299,-62.111L-88.829,-72.392L-67.524,-67.524L-63.760,-65.031L-53.483,-54.549L-35.352,-67.722L-42.145,-80.735L-43.353,-85.085L-41.399,-106.852L-29.313,-110.779L-14.938,-94.317L-13.359,-90.088L-11.206,-75.568L11.206,-75.568L13.359,-90.088L14.938,-94.317L29.313,-110.779L41.399,-106.852L43.353,-85.085L42.145,-80.735L35.352,-67.722L53.483,-54.549L63.760,-65.031L67.524,-67.524L88.829,-72.392L96.299,-62.111L85.085,-43.353L81.551,-40.544L68.407,-34.009z"
         style="stroke:#000000;fill:none" />
    </g>
    <g
       inkscape:label="Gear20"
       transform="translate(1047.9717,513.06729)"
       id="g3096">
      <path
         style="stroke:#000000;fill:none"
         d="M171.216,-15.176L181.435,-16.082L190.397,-14.985L209.954,-7.417L209.954,7.417L190.397,14.985L181.435,16.082L171.216,15.176L167.526,38.475L177.525,40.772L185.709,44.585L201.970,57.825L197.386,71.933L176.448,73.087L167.586,71.361L158.146,67.342L147.437,88.361L156.237,93.634L162.842,99.790L174.216,117.407L165.496,129.408L145.227,124.035L137.331,119.655L129.596,112.916L112.916,129.596L119.655,137.331L124.035,145.227L129.408,165.496L117.407,174.216L99.790,162.842L93.634,156.237L88.361,147.437L67.342,158.146L71.361,167.586L73.087,176.448L71.933,197.386L57.825,201.970L44.585,185.709L40.772,177.525L38.475,167.526L15.176,171.216L16.082,181.435L14.985,190.397L7.417,209.954L-7.417,209.954L-14.985,190.397L-16.082,181.435L-15.176,171.216L-38.475,167.526L-40.772,177.525L-44.585,185.709L-57.825,201.970L-71.933,197.386L-73.087,176.448L-71.361,167.586L-67.342,158.146L-88.361,147.437L-93.634,156.237L-99.790,162.842L-117.407,174.216L-129.408,165.496L-124.035,145.227L-119.655,137.331L-112.916,129.596L-129.596,112.916L-137.331,119.655L-145.227,124.035L-165.496,129.408L-174.216,117.407L-162.842,99.790L-156.237,93.634L-147.437,88.361L-158.146,67.342L-167.586,71.361L-176.448,73.087L-197.386,71.933L-201.970,57.825L-185.709,44.585L-177.525,40.772L-167.526,38.475L-171.216,15.176L-181.435,16.082L-190.397,14.985L-209.954,7.417L-209.954,-7.417L-190.397,-14.985L-181.435,-16.082L-171.216,-15.176L-167.526,-38.475L-177.525,-40.772L-185.709,-44.585L-201.970,-57.825L-197.386,-71.933L-176.448,-73.087L-167.586,-71.361L-158.146,-67.342L-147.437,-88.361L-156.237,-93.634L-162.842,-99.790L-174.216,-117.407L-165.496,-129.408L-145.227,-124.035L-137.331,-119.655L-129.596,-112.916L-112.916,-129.596L-119.655,-137.331L-124.035,-145.227L-129.408,-165.496L-117.407,-174.216L-99.790,-162.842L-93.634,-156.237L-88.361,-147.437L-67.342,-158.146L-71.361,-167.586L-73.087,-176.448L-71.933,-197.386L-57.825,-201.970L-44.585,-185.709L-40.772,-177.525L-38.475,-167.526L-15.176,-171.216L-16.082,-181.435L-14.985,-190.397L-7.417,-209.954L7.417,-209.954L14.985,-190.397L16.082,-181.435L15.176,-171.216L38.475,-167.526L40.772,-177.525L44.585,-185.709L57.825,-201.970L71.933,-197.386L73.087,-176.448L71.361,-167.586L67.342,-158.146L88.361,-147.437L93.634,-156.237L99.790,-162.842L117.407,-174.216L129.408,-165.496L124.035,-145.227L119.655,-137.331L112.916,-129.596L129.596,-112.916L137.331,-119.655L145.227,-124.035L165.496,-129.408L174.216,-117.407L162.842,-99.790L156.237,-93.634L147.437,-88.361L158.146,-67.342L167.586,-71.361L176.448,-73.087L197.386,-71.933L201.970,-57.825L185.709,-44.585L177.525,-40.772L167.526,-38.475z"
         id="path3098" />
    </g>
    <g
       id="g3124"
       transform="translate(1047.9717,513.06729)"
       inkscape:label="Gear30">
      <path
         id="path3126"
         d="M266.863,-16.627L272.691,-16.990L286.086,-14.993L305.477,-7.851L305.477,7.851L286.086,14.993L272.691,16.990L266.863,16.627L264.488,39.220L270.265,40.077L282.952,44.815L300.434,55.832L297.169,71.192L276.717,74.146L263.200,73.315L257.574,71.748L250.554,93.353L256.026,95.392L267.451,102.665L282.260,117.076L275.873,131.421L255.255,130.059L242.205,126.435L237.028,123.733L225.670,143.406L230.598,146.538L240.261,156.028L251.751,173.203L242.521,185.906L222.636,180.287L210.625,174.029L206.123,170.310L190.923,187.192L195.092,191.280L202.571,202.571L210.238,221.760L198.569,232.267L180.287,222.636L169.840,214.018L166.210,209.444L147.831,222.796L151.060,227.662L156.028,240.261L159.538,260.625L145.939,268.476L130.059,255.255L121.631,244.653L119.032,239.424L98.279,248.664L100.425,254.094L102.665,267.451L101.864,288.099L86.930,292.952L74.146,276.717L68.107,264.595L66.652,258.940L44.431,263.663L45.401,269.421L44.815,282.952L39.739,302.983L24.123,304.624L14.993,286.086L11.607,272.973L11.359,267.139L-11.359,267.139L-11.607,272.973L-14.993,286.086L-24.123,304.624L-39.739,302.983L-44.815,282.952L-45.401,269.421L-44.431,263.663L-66.652,258.940L-68.107,264.595L-74.146,276.717L-86.930,292.952L-101.864,288.099L-102.665,267.451L-100.425,254.094L-98.279,248.664L-119.032,239.424L-121.631,244.653L-130.059,255.255L-145.939,268.476L-159.538,260.625L-156.028,240.261L-151.060,227.662L-147.831,222.796L-166.210,209.444L-169.840,214.018L-180.287,222.636L-198.569,232.267L-210.238,221.760L-202.571,202.571L-195.092,191.280L-190.923,187.192L-206.123,170.310L-210.625,174.029L-222.636,180.287L-242.521,185.906L-251.751,173.203L-240.261,156.028L-230.598,146.538L-225.670,143.406L-237.028,123.733L-242.205,126.435L-255.255,130.059L-275.873,131.421L-282.260,117.076L-267.451,102.665L-256.026,95.392L-250.554,93.353L-257.574,71.748L-263.200,73.315L-276.717,74.146L-297.169,71.192L-300.434,55.832L-282.952,44.815L-270.265,40.077L-264.488,39.220L-266.863,16.627L-272.691,16.990L-286.086,14.993L-305.477,7.851L-305.477,-7.851L-286.086,-14.993L-272.691,-16.990L-266.863,-16.627L-264.488,-39.220L-270.265,-40.077L-282.952,-44.815L-300.434,-55.832L-297.169,-71.192L-276.717,-74.146L-263.200,-73.315L-257.574,-71.748L-250.554,-93.353L-256.026,-95.392L-267.451,-102.665L-282.260,-117.076L-275.873,-131.421L-255.255,-130.059L-242.205,-126.435L-237.028,-123.733L-225.670,-143.406L-230.598,-146.538L-240.261,-156.028L-251.751,-173.203L-242.521,-185.906L-222.636,-180.287L-210.625,-174.029L-206.123,-170.310L-190.923,-187.192L-195.092,-191.280L-202.571,-202.571L-210.238,-221.760L-198.569,-232.267L-180.287,-222.636L-169.840,-214.018L-166.210,-209.444L-147.831,-222.796L-151.060,-227.662L-156.028,-240.261L-159.538,-260.625L-145.939,-268.476L-130.059,-255.255L-121.631,-244.653L-119.032,-239.424L-98.279,-248.664L-100.425,-254.094L-102.665,-267.451L-101.864,-288.099L-86.930,-292.952L-74.146,-276.717L-68.107,-264.595L-66.652,-258.940L-44.431,-263.663L-45.401,-269.421L-44.815,-282.952L-39.739,-302.983L-24.123,-304.624L-14.993,-286.086L-11.607,-272.973L-11.359,-267.139L11.359,-267.139L11.607,-272.973L14.993,-286.086L24.123,-304.624L39.739,-302.983L44.815,-282.952L45.401,-269.421L44.431,-263.663L66.652,-258.940L68.107,-264.595L74.146,-276.717L86.930,-292.952L101.864,-288.099L102.665,-267.451L100.425,-254.094L98.279,-248.664L119.032,-239.424L121.631,-244.653L130.059,-255.255L145.939,-268.476L159.538,-260.625L156.028,-240.261L151.060,-227.662L147.831,-222.796L166.210,-209.444L169.840,-214.018L180.287,-222.636L198.569,-232.267L210.238,-221.760L202.571,-202.571L195.092,-191.280L190.923,-187.192L206.123,-170.310L210.625,-174.029L222.636,-180.287L242.521,-185.906L251.751,-173.203L240.261,-156.028L230.598,-146.538L225.670,-143.406L237.028,-123.733L242.205,-126.435L255.255,-130.059L275.873,-131.421L282.260,-117.076L267.451,-102.665L256.026,-95.392L250.554,-93.353L257.574,-71.748L263.200,-73.315L276.717,-74.146L297.169,-71.192L300.434,-55.832L282.952,-44.815L270.265,-40.077L264.488,-39.220z"
         style="stroke:#000000;fill:none" />
    </g>
    <g
       inkscape:label="Gear40"
       transform="translate(1047.9717,513.06729)"
       id="g3156">
      <path
         style="stroke:#000000;fill:none"
         d="M362.435,-17.823L363.853,-17.893L381.677,-14.996L400.989,-8.093L400.989,8.093L381.677,14.996L363.853,17.893L362.435,17.823L360.761,39.094L362.173,39.247L379.324,44.896L397.318,54.735L394.786,70.722L374.632,74.519L356.575,74.592L355.185,74.301L350.204,95.048L351.574,95.420L367.631,103.683L383.864,116.216L378.862,131.609L358.363,132.207L340.516,129.454L339.189,128.949L331.024,148.662L332.319,149.243L346.885,159.916L360.958,174.834L353.610,189.256L333.269,186.640L316.073,181.129L314.841,180.423L303.692,198.615L304.881,199.392L317.598,212.212L329.164,229.148L319.650,242.242L299.969,236.476L283.846,228.343L282.740,227.453L268.883,243.678L269.935,244.631L280.491,259.283L289.264,277.819L277.819,289.264L259.283,280.491L244.631,269.935L243.678,268.883L227.453,282.740L228.343,283.846L236.476,299.969L242.242,319.650L229.148,329.164L212.212,317.598L199.392,304.881L198.615,303.692L180.423,314.841L181.129,316.073L186.640,333.269L189.256,353.610L174.834,360.958L159.916,346.885L149.243,332.319L148.662,331.024L128.949,339.189L129.454,340.516L132.207,358.363L131.609,378.862L116.216,383.864L103.683,367.631L95.420,351.574L95.048,350.204L74.301,355.185L74.592,356.575L74.519,374.632L70.722,394.786L54.735,397.318L44.896,379.324L39.247,362.173L39.094,360.761L17.823,362.435L17.893,363.853L14.996,381.677L8.093,400.989L-8.093,400.989L-14.996,381.677L-17.893,363.853L-17.823,362.435L-39.094,360.761L-39.247,362.173L-44.896,379.324L-54.735,397.318L-70.722,394.786L-74.519,374.632L-74.592,356.575L-74.301,355.185L-95.048,350.204L-95.420,351.574L-103.683,367.631L-116.216,383.864L-131.609,378.862L-132.207,358.363L-129.454,340.516L-128.949,339.189L-148.662,331.024L-149.243,332.319L-159.916,346.885L-174.834,360.958L-189.256,353.610L-186.640,333.269L-181.129,316.073L-180.423,314.841L-198.615,303.692L-199.392,304.881L-212.212,317.598L-229.148,329.164L-242.242,319.650L-236.476,299.969L-228.343,283.846L-227.453,282.740L-243.678,268.883L-244.631,269.935L-259.283,280.491L-277.819,289.264L-289.264,277.819L-280.491,259.283L-269.935,244.631L-268.883,243.678L-282.740,227.453L-283.846,228.343L-299.969,236.476L-319.650,242.242L-329.164,229.148L-317.598,212.212L-304.881,199.392L-303.692,198.615L-314.841,180.423L-316.073,181.129L-333.269,186.640L-353.610,189.256L-360.958,174.834L-346.885,159.916L-332.319,149.243L-331.024,148.662L-339.189,128.949L-340.516,129.454L-358.363,132.207L-378.862,131.609L-383.864,116.216L-367.631,103.683L-351.574,95.420L-350.204,95.048L-355.185,74.301L-356.575,74.592L-374.632,74.519L-394.786,70.722L-397.318,54.735L-379.324,44.896L-362.173,39.247L-360.761,39.094L-362.435,17.823L-363.853,17.893L-381.677,14.996L-400.989,8.093L-400.989,-8.093L-381.677,-14.996L-363.853,-17.893L-362.435,-17.823L-360.761,-39.094L-362.173,-39.247L-379.324,-44.896L-397.318,-54.735L-394.786,-70.722L-374.632,-74.519L-356.575,-74.592L-355.185,-74.301L-350.204,-95.048L-351.574,-95.420L-367.631,-103.683L-383.864,-116.216L-378.862,-131.609L-358.363,-132.207L-340.516,-129.454L-339.189,-128.949L-331.024,-148.662L-332.319,-149.243L-346.885,-159.916L-360.958,-174.834L-353.610,-189.256L-333.269,-186.640L-316.073,-181.129L-314.841,-180.423L-303.692,-198.615L-304.881,-199.392L-317.598,-212.212L-329.164,-229.148L-319.650,-242.242L-299.969,-236.476L-283.846,-228.343L-282.740,-227.453L-268.883,-243.678L-269.935,-244.631L-280.491,-259.283L-289.264,-277.819L-277.819,-289.264L-259.283,-280.491L-244.631,-269.935L-243.678,-268.883L-227.453,-282.740L-228.343,-283.846L-236.476,-299.969L-242.242,-319.650L-229.148,-329.164L-212.212,-317.598L-199.392,-304.881L-198.615,-303.692L-180.423,-314.841L-181.129,-316.073L-186.640,-333.269L-189.256,-353.610L-174.834,-360.958L-159.916,-346.885L-149.243,-332.319L-148.662,-331.024L-128.949,-339.189L-129.454,-340.516L-132.207,-358.363L-131.609,-378.862L-116.216,-383.864L-103.683,-367.631L-95.420,-351.574L-95.048,-350.204L-74.301,-355.185L-74.592,-356.575L-74.519,-374.632L-70.722,-394.786L-54.735,-397.318L-44.896,-379.324L-39.247,-362.173L-39.094,-360.761L-17.823,-362.435L-17.893,-363.853L-14.996,-381.677L-8.093,-400.989L8.093,-400.989L14.996,-381.677L17.893,-363.853L17.823,-362.435L39.094,-360.761L39.247,-362.173L44.896,-379.324L54.735,-397.318L70.722,-394.786L74.519,-374.632L74.592,-356.575L74.301,-355.185L95.048,-350.204L95.420,-351.574L103.683,-367.631L116.216,-383.864L131.609,-378.862L132.207,-358.363L129.454,-340.516L128.949,-339.189L148.662,-331.024L149.243,-332.319L159.916,-346.885L174.834,-360.958L189.256,-353.610L186.640,-333.269L181.129,-316.073L180.423,-314.841L198.615,-303.692L199.392,-304.881L212.212,-317.598L229.148,-329.164L242.242,-319.650L236.476,-299.969L228.343,-283.846L227.453,-282.740L243.678,-268.883L244.631,-269.935L259.283,-280.491L277.819,-289.264L289.264,-277.819L280.491,-259.283L269.935,-244.631L268.883,-243.678L282.740,-227.453L283.846,-228.343L299.969,-236.476L319.650,-242.242L329.164,-229.148L317.598,-212.212L304.881,-199.392L303.692,-198.615L314.841,-180.423L316.073,-181.129L333.269,-186.640L353.610,-189.256L360.958,-174.834L346.885,-159.916L332.319,-149.243L331.024,-148.662L339.189,-128.949L340.516,-129.454L358.363,-132.207L378.862,-131.609L383.864,-116.216L367.631,-103.683L351.574,-95.420L350.204,-95.048L355.185,-74.301L356.575,-74.592L374.632,-74.519L394.786,-70.722L397.318,-54.735L379.324,-44.896L362.173,-39.247L360.761,-39.094z"
         id="path3158" />
    </g>
    <g
       id="g3192"
       transform="translate(1047.9717,513.06729)"
       inkscape:label="Gear360">
      <path
         id="path3194"
         d="M3418.585,-20.733L3437.714,-15.000L3456.834,-8.863L3456.834,8.863L3437.714,15.000L3418.585,20.733L3418.426,38.932L3437.452,44.999L3456.462,51.469L3456.153,69.192L3436.929,74.994L3417.703,80.393L3417.226,98.586L3436.143,104.984L3455.038,111.784L3454.419,129.499L3435.096,134.965L3415.779,140.028L3414.985,158.210L3433.788,164.937L3452.560,172.066L3451.633,189.767L3432.218,194.895L3412.815,199.620L3411.704,217.786L3430.386,224.839L3449.032,232.295L3447.795,249.978L3428.294,254.766L3408.812,259.151L3407.384,277.295L3425.940,284.674L3444.452,292.454L3442.907,310.112L3423.325,314.559L3403.770,318.604L3402.025,336.720L3420.450,344.421L3438.824,352.523L3436.971,370.152L3417.314,374.257L3397.691,377.959L3395.630,396.042L3413.918,404.064L3432.147,412.485L3429.987,430.079L3410.262,433.840L3390.577,437.199L3388.201,455.244L3406.346,463.583L3424.426,472.322L3421.959,489.875L3402.171,493.291L3382.430,496.307L3379.740,514.307L3397.737,522.962L3415.661,532.014L3412.888,549.522L3393.044,552.592L3373.253,555.263L3370.250,573.213L3388.092,582.181L3405.856,591.545L3402.778,609.001L3382.883,611.725L3363.049,614.049L3359.732,631.944L3377.416,641.222L3395.013,650.895L3391.631,668.295L3371.691,670.671L3351.820,672.649L3348.192,690.484L3365.710,700.069L3383.137,710.047L3379.451,727.385L3359.473,729.413L3339.570,731.044L3335.631,748.812L3352.980,758.702L3370.229,768.983L3366.242,786.254L3346.231,787.933L3326.303,789.216L3322.055,806.913L3339.228,817.104L3356.295,827.684L3352.007,844.883L3331.970,846.213L3312.023,847.148L3307.466,864.768L3324.459,875.257L3341.339,886.134L3336.751,903.255L3316.695,904.235L3296.734,904.822L3291.870,922.360L3308.677,933.144L3325.365,944.313L3320.479,961.352L3300.408,961.981L3280.440,962.220L3275.271,979.670L3291.888,990.746L3308.378,1002.205L3303.196,1019.156L3283.117,1019.435L3263.148,1019.325L3257.675,1036.682L3274.096,1048.046L3290.383,1059.791L3284.906,1076.650L3264.825,1076.578L3244.861,1076.119L3239.086,1093.379L3255.306,1105.027L3271.386,1117.055L3265.615,1133.815L3245.539,1133.393L3225.586,1132.586L3219.511,1149.742L3235.525,1161.672L3251.393,1173.979L3245.330,1190.635L3225.264,1189.863L3205.328,1188.708L3198.954,1205.755L3214.758,1217.963L3230.409,1230.544L3224.056,1247.093L3204.007,1245.970L3184.094,1244.468L3177.424,1261.401L3193.012,1273.883L3208.441,1286.735L3201.801,1303.170L3181.774,1301.698L3161.890,1299.848L3154.926,1316.663L3170.293,1329.414L3185.495,1342.534L3178.569,1358.851L3158.572,1357.029L3138.723,1354.833L3131.466,1371.523L3146.609,1384.541L3161.580,1397.924L3154.370,1414.118L3134.407,1411.947L3114.600,1409.405L3107.053,1425.966L3121.966,1439.246L3136.701,1452.889L3129.210,1468.954L3109.288,1466.435L3089.528,1463.547L3081.693,1479.974L3096.372,1493.513L3110.867,1507.410L3103.097,1523.342L3083.221,1520.477L3063.515,1517.244L3055.395,1533.532L3069.835,1547.324L3084.085,1561.473L3076.038,1577.267L3056.216,1574.055L3036.569,1570.479L3028.165,1586.622L3042.363,1600.665L3056.364,1615.060L3048.042,1630.711L3028.279,1627.153L3008.698,1623.235L3000.014,1639.229L3013.965,1653.518L3027.712,1668.155L3019.118,1683.658L2999.420,1679.756L2979.910,1675.497L2970.948,1691.337L2984.648,1705.867L2998.137,1720.742L2989.275,1736.092L2969.648,1731.847L2950.215,1727.248L2940.978,1742.930L2954.422,1757.696L2967.650,1772.804L2958.520,1787.998L2938.971,1783.411L2919.621,1778.473L2910.112,1793.991L2923.296,1808.990L2936.258,1824.327L2926.865,1839.359L2907.398,1834.432L2888.138,1829.157L2878.359,1844.507L2891.279,1859.733L2903.972,1875.294L2894.318,1890.160L2874.940,1884.893L2855.775,1879.283L2845.730,1894.460L2858.382,1909.910L2870.801,1925.689L2860.889,1940.385L2841.606,1934.781L2822.542,1928.837L2812.233,1943.836L2824.614,1959.505L2836.756,1975.499L2826.589,1990.019L2807.407,1984.079L2788.449,1977.804L2777.880,1992.620L2789.986,2008.502L2801.847,2024.706L2791.428,2039.046L2772.352,2032.773L2753.507,2026.168L2742.681,2040.798L2754.508,2056.888L2766.084,2073.296L2755.417,2087.453L2736.453,2080.847L2717.726,2073.914L2706.647,2088.353L2718.191,2104.648L2729.479,2121.256L2718.566,2135.224L2699.721,2128.288L2681.117,2121.029L2669.788,2135.273L2681.045,2151.766L2692.042,2168.568L2680.887,2182.344L2662.166,2175.081L2643.692,2167.498L2632.115,2181.542L2643.084,2198.229L2653.785,2215.221L2642.392,2228.799L2623.800,2221.211L2605.461,2213.307L2593.641,2227.146L2604.317,2244.023L2614.720,2261.198L2603.091,2274.576L2584.635,2266.664L2566.437,2258.441L2554.377,2272.072L2564.756,2289.133L2574.859,2306.487L2562.998,2319.660L2544.682,2311.427L2526.631,2302.888L2514.335,2316.306L2524.415,2333.545L2534.213,2351.073L2522.124,2364.037L2503.955,2355.486L2486.055,2346.633L2473.527,2359.835L2483.304,2377.247L2492.795,2394.943L2480.482,2407.694L2462.465,2398.827L2444.722,2389.663L2431.966,2402.644L2441.437,2420.224L2450.618,2438.084L2438.084,2450.618L2420.224,2441.437L2402.644,2431.966L2389.663,2444.722L2398.827,2462.465L2407.694,2480.482L2394.943,2492.795L2377.247,2483.304L2359.835,2473.527L2346.633,2486.055L2355.486,2503.955L2364.037,2522.124L2351.073,2534.213L2333.545,2524.415L2316.306,2514.335L2302.888,2526.631L2311.427,2544.682L2319.660,2562.998L2306.487,2574.859L2289.133,2564.756L2272.072,2554.377L2258.441,2566.437L2266.664,2584.635L2274.576,2603.091L2261.198,2614.720L2244.023,2604.317L2227.146,2593.641L2213.307,2605.461L2221.211,2623.800L2228.799,2642.392L2215.221,2653.785L2198.229,2643.084L2181.542,2632.115L2167.498,2643.692L2175.081,2662.166L2182.344,2680.887L2168.568,2692.042L2151.766,2681.045L2135.273,2669.788L2121.029,2681.117L2128.288,2699.721L2135.224,2718.566L2121.256,2729.479L2104.648,2718.191L2088.353,2706.647L2073.914,2717.726L2080.847,2736.453L2087.453,2755.417L2073.296,2766.084L2056.888,2754.508L2040.798,2742.681L2026.168,2753.507L2032.773,2772.352L2039.046,2791.428L2024.706,2801.847L2008.502,2789.986L1992.620,2777.880L1977.804,2788.449L1984.079,2807.407L1990.019,2826.589L1975.499,2836.756L1959.505,2824.614L1943.836,2812.233L1928.837,2822.542L1934.781,2841.606L1940.385,2860.889L1925.689,2870.801L1909.910,2858.382L1894.460,2845.730L1879.283,2855.775L1884.893,2874.940L1890.160,2894.318L1875.294,2903.972L1859.733,2891.279L1844.507,2878.359L1829.157,2888.138L1834.432,2907.398L1839.359,2926.865L1824.327,2936.258L1808.990,2923.296L1793.991,2910.112L1778.473,2919.621L1783.411,2938.971L1787.998,2958.520L1772.804,2967.650L1757.696,2954.422L1742.930,2940.978L1727.248,2950.215L1731.847,2969.648L1736.092,2989.275L1720.742,2998.137L1705.867,2984.648L1691.337,2970.948L1675.497,2979.910L1679.756,2999.420L1683.658,3019.118L1668.155,3027.712L1653.518,3013.965L1639.229,3000.014L1623.235,3008.698L1627.153,3028.279L1630.711,3048.042L1615.060,3056.364L1600.665,3042.363L1586.622,3028.165L1570.479,3036.569L1574.055,3056.216L1577.267,3076.038L1561.473,3084.085L1547.324,3069.835L1533.532,3055.395L1517.244,3063.515L1520.477,3083.221L1523.342,3103.097L1507.410,3110.867L1493.513,3096.372L1479.974,3081.693L1463.547,3089.528L1466.435,3109.288L1468.954,3129.210L1452.889,3136.701L1439.246,3121.966L1425.966,3107.053L1409.405,3114.600L1411.947,3134.407L1414.118,3154.370L1397.924,3161.580L1384.541,3146.609L1371.523,3131.466L1354.833,3138.723L1357.029,3158.572L1358.851,3178.569L1342.534,3185.495L1329.414,3170.293L1316.663,3154.926L1299.848,3161.890L1301.698,3181.774L1303.170,3201.801L1286.735,3208.441L1273.883,3193.012L1261.401,3177.424L1244.468,3184.094L1245.970,3204.007L1247.093,3224.056L1230.544,3230.409L1217.963,3214.758L1205.755,3198.954L1188.708,3205.328L1189.863,3225.264L1190.635,3245.330L1173.979,3251.393L1161.672,3235.525L1149.742,3219.511L1132.586,3225.586L1133.393,3245.539L1133.815,3265.615L1117.055,3271.386L1105.027,3255.306L1093.379,3239.086L1076.119,3244.861L1076.578,3264.825L1076.650,3284.906L1059.791,3290.383L1048.046,3274.096L1036.682,3257.675L1019.325,3263.148L1019.435,3283.117L1019.156,3303.196L1002.205,3308.378L990.746,3291.888L979.670,3275.271L962.220,3280.440L961.981,3300.408L961.352,3320.479L944.313,3325.365L933.144,3308.677L922.360,3291.870L904.822,3296.734L904.235,3316.695L903.255,3336.751L886.134,3341.339L875.257,3324.459L864.768,3307.466L847.148,3312.023L846.213,3331.970L844.883,3352.007L827.684,3356.295L817.104,3339.228L806.913,3322.055L789.216,3326.303L787.933,3346.231L786.254,3366.242L768.983,3370.229L758.702,3352.980L748.812,3335.631L731.044,3339.570L729.413,3359.473L727.385,3379.451L710.047,3383.137L700.069,3365.710L690.484,3348.192L672.649,3351.820L670.671,3371.691L668.295,3391.631L650.895,3395.013L641.222,3377.416L631.944,3359.732L614.049,3363.049L611.725,3382.883L609.001,3402.778L591.545,3405.856L582.181,3388.092L573.213,3370.250L555.263,3373.253L552.592,3393.044L549.522,3412.888L532.014,3415.661L522.962,3397.737L514.307,3379.740L496.307,3382.430L493.291,3402.171L489.875,3421.959L472.322,3424.426L463.583,3406.346L455.244,3388.201L437.199,3390.577L433.840,3410.262L430.079,3429.987L412.485,3432.147L404.064,3413.918L396.042,3395.630L377.959,3397.691L374.257,3417.314L370.152,3436.971L352.523,3438.824L344.421,3420.450L336.720,3402.025L318.604,3403.770L314.559,3423.325L310.112,3442.907L292.454,3444.452L284.674,3425.940L277.295,3407.384L259.151,3408.812L254.766,3428.294L249.978,3447.795L232.295,3449.032L224.839,3430.386L217.786,3411.704L199.620,3412.815L194.895,3432.218L189.767,3451.633L172.066,3452.560L164.937,3433.788L158.210,3414.985L140.028,3415.779L134.965,3435.096L129.499,3454.419L111.784,3455.038L104.984,3436.143L98.586,3417.226L80.393,3417.703L74.994,3436.929L69.192,3456.153L51.469,3456.462L44.999,3437.452L38.932,3418.426L20.733,3418.585L15.000,3437.714L8.863,3456.834L-8.863,3456.834L-15.000,3437.714L-20.733,3418.585L-38.932,3418.426L-44.999,3437.452L-51.469,3456.462L-69.192,3456.153L-74.994,3436.929L-80.393,3417.703L-98.586,3417.226L-104.984,3436.143L-111.784,3455.038L-129.499,3454.419L-134.965,3435.096L-140.028,3415.779L-158.210,3414.985L-164.937,3433.788L-172.066,3452.560L-189.767,3451.633L-194.895,3432.218L-199.620,3412.815L-217.786,3411.704L-224.839,3430.386L-232.295,3449.032L-249.978,3447.795L-254.766,3428.294L-259.151,3408.812L-277.295,3407.384L-284.674,3425.940L-292.454,3444.452L-310.112,3442.907L-314.559,3423.325L-318.604,3403.770L-336.720,3402.025L-344.421,3420.450L-352.523,3438.824L-370.152,3436.971L-374.257,3417.314L-377.959,3397.691L-396.042,3395.630L-404.064,3413.918L-412.485,3432.147L-430.079,3429.987L-433.840,3410.262L-437.199,3390.577L-455.244,3388.201L-463.583,3406.346L-472.322,3424.426L-489.875,3421.959L-493.291,3402.171L-496.307,3382.430L-514.307,3379.740L-522.962,3397.737L-532.014,3415.661L-549.522,3412.888L-552.592,3393.044L-555.263,3373.253L-573.213,3370.250L-582.181,3388.092L-591.545,3405.856L-609.001,3402.778L-611.725,3382.883L-614.049,3363.049L-631.944,3359.732L-641.222,3377.416L-650.895,3395.013L-668.295,3391.631L-670.671,3371.691L-672.649,3351.820L-690.484,3348.192L-700.069,3365.710L-710.047,3383.137L-727.385,3379.451L-729.413,3359.473L-731.044,3339.570L-748.812,3335.631L-758.702,3352.980L-768.983,3370.229L-786.254,3366.242L-787.933,3346.231L-789.216,3326.303L-806.913,3322.055L-817.104,3339.228L-827.684,3356.295L-844.883,3352.007L-846.213,3331.970L-847.148,3312.023L-864.768,3307.466L-875.257,3324.459L-886.134,3341.339L-903.255,3336.751L-904.235,3316.695L-904.822,3296.734L-922.360,3291.870L-933.144,3308.677L-944.313,3325.365L-961.352,3320.479L-961.981,3300.408L-962.220,3280.440L-979.670,3275.271L-990.746,3291.888L-1002.205,3308.378L-1019.156,3303.196L-1019.435,3283.117L-1019.325,3263.148L-1036.682,3257.675L-1048.046,3274.096L-1059.791,3290.383L-1076.650,3284.906L-1076.578,3264.825L-1076.119,3244.861L-1093.379,3239.086L-1105.027,3255.306L-1117.055,3271.386L-1133.815,3265.615L-1133.393,3245.539L-1132.586,3225.586L-1149.742,3219.511L-1161.672,3235.525L-1173.979,3251.393L-1190.635,3245.330L-1189.863,3225.264L-1188.708,3205.328L-1205.755,3198.954L-1217.963,3214.758L-1230.544,3230.409L-1247.093,3224.056L-1245.970,3204.007L-1244.468,3184.094L-1261.401,3177.424L-1273.883,3193.012L-1286.735,3208.441L-1303.170,3201.801L-1301.698,3181.774L-1299.848,3161.890L-1316.663,3154.926L-1329.414,3170.293L-1342.534,3185.495L-1358.851,3178.569L-1357.029,3158.572L-1354.833,3138.723L-1371.523,3131.466L-1384.541,3146.609L-1397.924,3161.580L-1414.118,3154.370L-1411.947,3134.407L-1409.405,3114.600L-1425.966,3107.053L-1439.246,3121.966L-1452.889,3136.701L-1468.954,3129.210L-1466.435,3109.288L-1463.547,3089.528L-1479.974,3081.693L-1493.513,3096.372L-1507.410,3110.867L-1523.342,3103.097L-1520.477,3083.221L-1517.244,3063.515L-1533.532,3055.395L-1547.324,3069.835L-1561.473,3084.085L-1577.267,3076.038L-1574.055,3056.216L-1570.479,3036.569L-1586.622,3028.165L-1600.665,3042.363L-1615.060,3056.364L-1630.711,3048.042L-1627.153,3028.279L-1623.235,3008.698L-1639.229,3000.014L-1653.518,3013.965L-1668.155,3027.712L-1683.658,3019.118L-1679.756,2999.420L-1675.497,2979.910L-1691.337,2970.948L-1705.867,2984.648L-1720.742,2998.137L-1736.092,2989.275L-1731.847,2969.648L-1727.248,2950.215L-1742.930,2940.978L-1757.696,2954.422L-1772.804,2967.650L-1787.998,2958.520L-1783.411,2938.971L-1778.473,2919.621L-1793.991,2910.112L-1808.990,2923.296L-1824.327,2936.258L-1839.359,2926.865L-1834.432,2907.398L-1829.157,2888.138L-1844.507,2878.359L-1859.733,2891.279L-1875.294,2903.972L-1890.160,2894.318L-1884.893,2874.940L-1879.283,2855.775L-1894.460,2845.730L-1909.910,2858.382L-1925.689,2870.801L-1940.385,2860.889L-1934.781,2841.606L-1928.837,2822.542L-1943.836,2812.233L-1959.505,2824.614L-1975.499,2836.756L-1990.019,2826.589L-1984.079,2807.407L-1977.804,2788.449L-1992.620,2777.880L-2008.502,2789.986L-2024.706,2801.847L-2039.046,2791.428L-2032.773,2772.352L-2026.168,2753.507L-2040.798,2742.681L-2056.888,2754.508L-2073.296,2766.084L-2087.453,2755.417L-2080.847,2736.453L-2073.914,2717.726L-2088.353,2706.647L-2104.648,2718.191L-2121.256,2729.479L-2135.224,2718.566L-2128.288,2699.721L-2121.029,2681.117L-2135.273,2669.788L-2151.766,2681.045L-2168.568,2692.042L-2182.344,2680.887L-2175.081,2662.166L-2167.498,2643.692L-2181.542,2632.115L-2198.229,2643.084L-2215.221,2653.785L-2228.799,2642.392L-2221.211,2623.800L-2213.307,2605.461L-2227.146,2593.641L-2244.023,2604.317L-2261.198,2614.720L-2274.576,2603.091L-2266.664,2584.635L-2258.441,2566.437L-2272.072,2554.377L-2289.133,2564.756L-2306.487,2574.859L-2319.660,2562.998L-2311.427,2544.682L-2302.888,2526.631L-2316.306,2514.335L-2333.545,2524.415L-2351.073,2534.213L-2364.037,2522.124L-2355.486,2503.955L-2346.633,2486.055L-2359.835,2473.527L-2377.247,2483.304L-2394.943,2492.795L-2407.694,2480.482L-2398.827,2462.465L-2389.663,2444.722L-2402.644,2431.966L-2420.224,2441.437L-2438.084,2450.618L-2450.618,2438.084L-2441.437,2420.224L-2431.966,2402.644L-2444.722,2389.663L-2462.465,2398.827L-2480.482,2407.694L-2492.795,2394.943L-2483.304,2377.247L-2473.527,2359.835L-2486.055,2346.633L-2503.955,2355.486L-2522.124,2364.037L-2534.213,2351.073L-2524.415,2333.545L-2514.335,2316.306L-2526.631,2302.888L-2544.682,2311.427L-2562.998,2319.660L-2574.859,2306.487L-2564.756,2289.133L-2554.377,2272.072L-2566.437,2258.441L-2584.635,2266.664L-2603.091,2274.576L-2614.720,2261.198L-2604.317,2244.023L-2593.641,2227.146L-2605.461,2213.307L-2623.800,2221.211L-2642.392,2228.799L-2653.785,2215.221L-2643.084,2198.229L-2632.115,2181.542L-2643.692,2167.498L-2662.166,2175.081L-2680.887,2182.344L-2692.042,2168.568L-2681.045,2151.766L-2669.788,2135.273L-2681.117,2121.029L-2699.721,2128.288L-2718.566,2135.224L-2729.479,2121.256L-2718.191,2104.648L-2706.647,2088.353L-2717.726,2073.914L-2736.453,2080.847L-2755.417,2087.453L-2766.084,2073.296L-2754.508,2056.888L-2742.681,2040.798L-2753.507,2026.168L-2772.352,2032.773L-2791.428,2039.046L-2801.847,2024.706L-2789.986,2008.502L-2777.880,1992.620L-2788.449,1977.804L-2807.407,1984.079L-2826.589,1990.019L-2836.756,1975.499L-2824.614,1959.505L-2812.233,1943.836L-2822.542,1928.837L-2841.606,1934.781L-2860.889,1940.385L-2870.801,1925.689L-2858.382,1909.910L-2845.730,1894.460L-2855.775,1879.283L-2874.940,1884.893L-2894.318,1890.160L-2903.972,1875.294L-2891.279,1859.733L-2878.359,1844.507L-2888.138,1829.157L-2907.398,1834.432L-2926.865,1839.359L-2936.258,1824.327L-2923.296,1808.990L-2910.112,1793.991L-2919.621,1778.473L-2938.971,1783.411L-2958.520,1787.998L-2967.650,1772.804L-2954.422,1757.696L-2940.978,1742.930L-2950.215,1727.248L-2969.648,1731.847L-2989.275,1736.092L-2998.137,1720.742L-2984.648,1705.867L-2970.948,1691.337L-2979.910,1675.497L-2999.420,1679.756L-3019.118,1683.658L-3027.712,1668.155L-3013.965,1653.518L-3000.014,1639.229L-3008.698,1623.235L-3028.279,1627.153L-3048.042,1630.711L-3056.364,1615.060L-3042.363,1600.665L-3028.165,1586.622L-3036.569,1570.479L-3056.216,1574.055L-3076.038,1577.267L-3084.085,1561.473L-3069.835,1547.324L-3055.395,1533.532L-3063.515,1517.244L-3083.221,1520.477L-3103.097,1523.342L-3110.867,1507.410L-3096.372,1493.513L-3081.693,1479.974L-3089.528,1463.547L-3109.288,1466.435L-3129.210,1468.954L-3136.701,1452.889L-3121.966,1439.246L-3107.053,1425.966L-3114.600,1409.405L-3134.407,1411.947L-3154.370,1414.118L-3161.580,1397.924L-3146.609,1384.541L-3131.466,1371.523L-3138.723,1354.833L-3158.572,1357.029L-3178.569,1358.851L-3185.495,1342.534L-3170.293,1329.414L-3154.926,1316.663L-3161.890,1299.848L-3181.774,1301.698L-3201.801,1303.170L-3208.441,1286.735L-3193.012,1273.883L-3177.424,1261.401L-3184.094,1244.468L-3204.007,1245.970L-3224.056,1247.093L-3230.409,1230.544L-3214.758,1217.963L-3198.954,1205.755L-3205.328,1188.708L-3225.264,1189.863L-3245.330,1190.635L-3251.393,1173.979L-3235.525,1161.672L-3219.511,1149.742L-3225.586,1132.586L-3245.539,1133.393L-3265.615,1133.815L-3271.386,1117.055L-3255.306,1105.027L-3239.086,1093.379L-3244.861,1076.119L-3264.825,1076.578L-3284.906,1076.650L-3290.383,1059.791L-3274.096,1048.046L-3257.675,1036.682L-3263.148,1019.325L-3283.117,1019.435L-3303.196,1019.156L-3308.378,1002.205L-3291.888,990.746L-3275.271,979.670L-3280.440,962.220L-3300.408,961.981L-3320.479,961.352L-3325.365,944.313L-3308.677,933.144L-3291.870,922.360L-3296.734,904.822L-3316.695,904.235L-3336.751,903.255L-3341.339,886.134L-3324.459,875.257L-3307.466,864.768L-3312.023,847.148L-3331.970,846.213L-3352.007,844.883L-3356.295,827.684L-3339.228,817.104L-3322.055,806.913L-3326.303,789.216L-3346.231,787.933L-3366.242,786.254L-3370.229,768.983L-3352.980,758.702L-3335.631,748.812L-3339.570,731.044L-3359.473,729.413L-3379.451,727.385L-3383.137,710.047L-3365.710,700.069L-3348.192,690.484L-3351.820,672.649L-3371.691,670.671L-3391.631,668.295L-3395.013,650.895L-3377.416,641.222L-3359.732,631.944L-3363.049,614.049L-3382.883,611.725L-3402.778,609.001L-3405.856,591.545L-3388.092,582.181L-3370.250,573.213L-3373.253,555.263L-3393.044,552.592L-3412.888,549.522L-3415.661,532.014L-3397.737,522.962L-3379.740,514.307L-3382.430,496.307L-3402.171,493.291L-3421.959,489.875L-3424.426,472.322L-3406.346,463.583L-3388.201,455.244L-3390.577,437.199L-3410.262,433.840L-3429.987,430.079L-3432.147,412.485L-3413.918,404.064L-3395.630,396.042L-3397.691,377.959L-3417.314,374.257L-3436.971,370.152L-3438.824,352.523L-3420.450,344.421L-3402.025,336.720L-3403.770,318.604L-3423.325,314.559L-3442.907,310.112L-3444.452,292.454L-3425.940,284.674L-3407.384,277.295L-3408.812,259.151L-3428.294,254.766L-3447.795,249.978L-3449.032,232.295L-3430.386,224.839L-3411.704,217.786L-3412.815,199.620L-3432.218,194.895L-3451.633,189.767L-3452.560,172.066L-3433.788,164.937L-3414.985,158.210L-3415.779,140.028L-3435.096,134.965L-3454.419,129.499L-3455.038,111.784L-3436.143,104.984L-3417.226,98.586L-3417.703,80.393L-3436.929,74.994L-3456.153,69.192L-3456.462,51.469L-3437.452,44.999L-3418.426,38.932L-3418.585,20.733L-3437.714,15.000L-3456.834,8.863L-3456.834,-8.863L-3437.714,-15.000L-3418.585,-20.733L-3418.426,-38.932L-3437.452,-44.999L-3456.462,-51.469L-3456.153,-69.192L-3436.929,-74.994L-3417.703,-80.393L-3417.226,-98.586L-3436.143,-104.984L-3455.038,-111.784L-3454.419,-129.499L-3435.096,-134.965L-3415.779,-140.028L-3414.985,-158.210L-3433.788,-164.937L-3452.560,-172.066L-3451.633,-189.767L-3432.218,-194.895L-3412.815,-199.620L-3411.704,-217.786L-3430.386,-224.839L-3449.032,-232.295L-3447.795,-249.978L-3428.294,-254.766L-3408.812,-259.151L-3407.384,-277.295L-3425.940,-284.674L-3444.452,-292.454L-3442.907,-310.112L-3423.325,-314.559L-3403.770,-318.604L-3402.025,-336.720L-3420.450,-344.421L-3438.824,-352.523L-3436.971,-370.152L-3417.314,-374.257L-3397.691,-377.959L-3395.630,-396.042L-3413.918,-404.064L-3432.147,-412.485L-3429.987,-430.079L-3410.262,-433.840L-3390.577,-437.199L-3388.201,-455.244L-3406.346,-463.583L-3424.426,-472.322L-3421.959,-489.875L-3402.171,-493.291L-3382.430,-496.307L-3379.740,-514.307L-3397.737,-522.962L-3415.661,-532.014L-3412.888,-549.522L-3393.044,-552.592L-3373.253,-555.263L-3370.250,-573.213L-3388.092,-582.181L-3405.856,-591.545L-3402.778,-609.001L-3382.883,-611.725L-3363.049,-614.049L-3359.732,-631.944L-3377.416,-641.222L-3395.013,-650.895L-3391.631,-668.295L-3371.691,-670.671L-3351.820,-672.649L-3348.192,-690.484L-3365.710,-700.069L-3383.137,-710.047L-3379.451,-727.385L-3359.473,-729.413L-3339.570,-731.044L-3335.631,-748.812L-3352.980,-758.702L-3370.229,-768.983L-3366.242,-786.254L-3346.231,-787.933L-3326.303,-789.216L-3322.055,-806.913L-3339.228,-817.104L-3356.295,-827.684L-3352.007,-844.883L-3331.970,-846.213L-3312.023,-847.148L-3307.466,-864.768L-3324.459,-875.257L-3341.339,-886.134L-3336.751,-903.255L-3316.695,-904.235L-3296.734,-904.822L-3291.870,-922.360L-3308.677,-933.144L-3325.365,-944.313L-3320.479,-961.352L-3300.408,-961.981L-3280.440,-962.220L-3275.271,-979.670L-3291.888,-990.746L-3308.378,-1002.205L-3303.196,-1019.156L-3283.117,-1019.435L-3263.148,-1019.325L-3257.675,-1036.682L-3274.096,-1048.046L-3290.383,-1059.791L-3284.906,-1076.650L-3264.825,-1076.578L-3244.861,-1076.119L-3239.086,-1093.379L-3255.306,-1105.027L-3271.386,-1117.055L-3265.615,-1133.815L-3245.539,-1133.393L-3225.586,-1132.586L-3219.511,-1149.742L-3235.525,-1161.672L-3251.393,-1173.979L-3245.330,-1190.635L-3225.264,-1189.863L-3205.328,-1188.708L-3198.954,-1205.755L-3214.758,-1217.963L-3230.409,-1230.544L-3224.056,-1247.093L-3204.007,-1245.970L-3184.094,-1244.468L-3177.424,-1261.401L-3193.012,-1273.883L-3208.441,-1286.735L-3201.801,-1303.170L-3181.774,-1301.698L-3161.890,-1299.848L-3154.926,-1316.663L-3170.293,-1329.414L-3185.495,-1342.534L-3178.569,-1358.851L-3158.572,-1357.029L-3138.723,-1354.833L-3131.466,-1371.523L-3146.609,-1384.541L-3161.580,-1397.924L-3154.370,-1414.118L-3134.407,-1411.947L-3114.600,-1409.405L-3107.053,-1425.966L-3121.966,-1439.246L-3136.701,-1452.889L-3129.210,-1468.954L-3109.288,-1466.435L-3089.528,-1463.547L-3081.693,-1479.974L-3096.372,-1493.513L-3110.867,-1507.410L-3103.097,-1523.342L-3083.221,-1520.477L-3063.515,-1517.244L-3055.395,-1533.532L-3069.835,-1547.324L-3084.085,-1561.473L-3076.038,-1577.267L-3056.216,-1574.055L-3036.569,-1570.479L-3028.165,-1586.622L-3042.363,-1600.665L-3056.364,-1615.060L-3048.042,-1630.711L-3028.279,-1627.153L-3008.698,-1623.235L-3000.014,-1639.229L-3013.965,-1653.518L-3027.712,-1668.155L-3019.118,-1683.658L-2999.420,-1679.756L-2979.910,-1675.497L-2970.948,-1691.337L-2984.648,-1705.867L-2998.137,-1720.742L-2989.275,-1736.092L-2969.648,-1731.847L-2950.215,-1727.248L-2940.978,-1742.930L-2954.422,-1757.696L-2967.650,-1772.804L-2958.520,-1787.998L-2938.971,-1783.411L-2919.621,-1778.473L-2910.112,-1793.991L-2923.296,-1808.990L-2936.258,-1824.327L-2926.865,-1839.359L-2907.398,-1834.432L-2888.138,-1829.157L-2878.359,-1844.507L-2891.279,-1859.733L-2903.972,-1875.294L-2894.318,-1890.160L-2874.940,-1884.893L-2855.775,-1879.283L-2845.730,-1894.460L-2858.382,-1909.910L-2870.801,-1925.689L-2860.889,-1940.385L-2841.606,-1934.781L-2822.542,-1928.837L-2812.233,-1943.836L-2824.614,-1959.505L-2836.756,-1975.499L-2826.589,-1990.019L-2807.407,-1984.079L-2788.449,-1977.804L-2777.880,-1992.620L-2789.986,-2008.502L-2801.847,-2024.706L-2791.428,-2039.046L-2772.352,-2032.773L-2753.507,-2026.168L-2742.681,-2040.798L-2754.508,-2056.888L-2766.084,-2073.296L-2755.417,-2087.453L-2736.453,-2080.847L-2717.726,-2073.914L-2706.647,-2088.353L-2718.191,-2104.648L-2729.479,-2121.256L-2718.566,-2135.224L-2699.721,-2128.288L-2681.117,-2121.029L-2669.788,-2135.273L-2681.045,-2151.766L-2692.042,-2168.568L-2680.887,-2182.344L-2662.166,-2175.081L-2643.692,-2167.498L-2632.115,-2181.542L-2643.084,-2198.229L-2653.785,-2215.221L-2642.392,-2228.799L-2623.800,-2221.211L-2605.461,-2213.307L-2593.641,-2227.146L-2604.317,-2244.023L-2614.720,-2261.198L-2603.091,-2274.576L-2584.635,-2266.664L-2566.437,-2258.441L-2554.377,-2272.072L-2564.756,-2289.133L-2574.859,-2306.487L-2562.998,-2319.660L-2544.682,-2311.427L-2526.631,-2302.888L-2514.335,-2316.306L-2524.415,-2333.545L-2534.213,-2351.073L-2522.124,-2364.037L-2503.955,-2355.486L-2486.055,-2346.633L-2473.527,-2359.835L-2483.304,-2377.247L-2492.795,-2394.943L-2480.482,-2407.694L-2462.465,-2398.827L-2444.722,-2389.663L-2431.966,-2402.644L-2441.437,-2420.224L-2450.618,-2438.084L-2438.084,-2450.618L-2420.224,-2441.437L-2402.644,-2431.966L-2389.663,-2444.722L-2398.827,-2462.465L-2407.694,-2480.482L-2394.943,-2492.795L-2377.247,-2483.304L-2359.835,-2473.527L-2346.633,-2486.055L-2355.486,-2503.955L-2364.037,-2522.124L-2351.073,-2534.213L-2333.545,-2524.415L-2316.306,-2514.335L-2302.888,-2526.631L-2311.427,-2544.682L-2319.660,-2562.998L-2306.487,-2574.859L-2289.133,-2564.756L-2272.072,-2554.377L-2258.441,-2566.437L-2266.664,-2584.635L-2274.576,-2603.091L-2261.198,-2614.720L-2244.023,-2604.317L-2227.146,-2593.641L-2213.307,-2605.461L-2221.211,-2623.800L-2228.799,-2642.392L-2215.221,-2653.785L-2198.229,-2643.084L-2181.542,-2632.115L-2167.498,-2643.692L-2175.081,-2662.166L-2182.344,-2680.887L-2168.568,-2692.042L-2151.766,-2681.045L-2135.273,-2669.788L-2121.029,-2681.117L-2128.288,-2699.721L-2135.224,-2718.566L-2121.256,-2729.479L-2104.648,-2718.191L-2088.353,-2706.647L-2073.914,-2717.726L-2080.847,-2736.453L-2087.453,-2755.417L-2073.296,-2766.084L-2056.888,-2754.508L-2040.798,-2742.681L-2026.168,-2753.507L-2032.773,-2772.352L-2039.046,-2791.428L-2024.706,-2801.847L-2008.502,-2789.986L-1992.620,-2777.880L-1977.804,-2788.449L-1984.079,-2807.407L-1990.019,-2826.589L-1975.499,-2836.756L-1959.505,-2824.614L-1943.836,-2812.233L-1928.837,-2822.542L-1934.781,-2841.606L-1940.385,-2860.889L-1925.689,-2870.801L-1909.910,-2858.382L-1894.460,-2845.730L-1879.283,-2855.775L-1884.893,-2874.940L-1890.160,-2894.318L-1875.294,-2903.972L-1859.733,-2891.279L-1844.507,-2878.359L-1829.157,-2888.138L-1834.432,-2907.398L-1839.359,-2926.865L-1824.327,-2936.258L-1808.990,-2923.296L-1793.991,-2910.112L-1778.473,-2919.621L-1783.411,-2938.971L-1787.998,-2958.520L-1772.804,-2967.650L-1757.696,-2954.422L-1742.930,-2940.978L-1727.248,-2950.215L-1731.847,-2969.648L-1736.092,-2989.275L-1720.742,-2998.137L-1705.867,-2984.648L-1691.337,-2970.948L-1675.497,-2979.910L-1679.756,-2999.420L-1683.658,-3019.118L-1668.155,-3027.712L-1653.518,-3013.965L-1639.229,-3000.014L-1623.235,-3008.698L-1627.153,-3028.279L-1630.711,-3048.042L-1615.060,-3056.364L-1600.665,-3042.363L-1586.622,-3028.165L-1570.479,-3036.569L-1574.055,-3056.216L-1577.267,-3076.038L-1561.473,-3084.085L-1547.324,-3069.835L-1533.532,-3055.395L-1517.244,-3063.515L-1520.477,-3083.221L-1523.342,-3103.097L-1507.410,-3110.867L-1493.513,-3096.372L-1479.974,-3081.693L-1463.547,-3089.528L-1466.435,-3109.288L-1468.954,-3129.210L-1452.889,-3136.701L-1439.246,-3121.966L-1425.966,-3107.053L-1409.405,-3114.600L-1411.947,-3134.407L-1414.118,-3154.370L-1397.924,-3161.580L-1384.541,-3146.609L-1371.523,-3131.466L-1354.833,-3138.723L-1357.029,-3158.572L-1358.851,-3178.569L-1342.534,-3185.495L-1329.414,-3170.293L-1316.663,-3154.926L-1299.848,-3161.890L-1301.698,-3181.774L-1303.170,-3201.801L-1286.735,-3208.441L-1273.883,-3193.012L-1261.401,-3177.424L-1244.468,-3184.094L-1245.970,-3204.007L-1247.093,-3224.056L-1230.544,-3230.409L-1217.963,-3214.758L-1205.755,-3198.954L-1188.708,-3205.328L-1189.863,-3225.264L-1190.635,-3245.330L-1173.979,-3251.393L-1161.672,-3235.525L-1149.742,-3219.511L-1132.586,-3225.586L-1133.393,-3245.539L-1133.815,-3265.615L-1117.055,-3271.386L-1105.027,-3255.306L-1093.379,-3239.086L-1076.119,-3244.861L-1076.578,-3264.825L-1076.650,-3284.906L-1059.791,-3290.383L-1048.046,-3274.096L-1036.682,-3257.675L-1019.325,-3263.148L-1019.435,-3283.117L-1019.156,-3303.196L-1002.205,-3308.378L-990.746,-3291.888L-979.670,-3275.271L-962.220,-3280.440L-961.981,-3300.408L-961.352,-3320.479L-944.313,-3325.365L-933.144,-3308.677L-922.360,-3291.870L-904.822,-3296.734L-904.235,-3316.695L-903.255,-3336.751L-886.134,-3341.339L-875.257,-3324.459L-864.768,-3307.466L-847.148,-3312.023L-846.213,-3331.970L-844.883,-3352.007L-827.684,-3356.295L-817.104,-3339.228L-806.913,-3322.055L-789.216,-3326.303L-787.933,-3346.231L-786.254,-3366.242L-768.983,-3370.229L-758.702,-3352.980L-748.812,-3335.631L-731.044,-3339.570L-729.413,-3359.473L-727.385,-3379.451L-710.047,-3383.137L-700.069,-3365.710L-690.484,-3348.192L-672.649,-3351.820L-670.671,-3371.691L-668.295,-3391.631L-650.895,-3395.013L-641.222,-3377.416L-631.944,-3359.732L-614.049,-3363.049L-611.725,-3382.883L-609.001,-3402.778L-591.545,-3405.856L-582.181,-3388.092L-573.213,-3370.250L-555.263,-3373.253L-552.592,-3393.044L-549.522,-3412.888L-532.014,-3415.661L-522.962,-3397.737L-514.307,-3379.740L-496.307,-3382.430L-493.291,-3402.171L-489.875,-3421.959L-472.322,-3424.426L-463.583,-3406.346L-455.244,-3388.201L-437.199,-3390.577L-433.840,-3410.262L-430.079,-3429.987L-412.485,-3432.147L-404.064,-3413.918L-396.042,-3395.630L-377.959,-3397.691L-374.257,-3417.314L-370.152,-3436.971L-352.523,-3438.824L-344.421,-3420.450L-336.720,-3402.025L-318.604,-3403.770L-314.559,-3423.325L-310.112,-3442.907L-292.454,-3444.452L-284.674,-3425.940L-277.295,-3407.384L-259.151,-3408.812L-254.766,-3428.294L-249.978,-3447.795L-232.295,-3449.032L-224.839,-3430.386L-217.786,-3411.704L-199.620,-3412.815L-194.895,-3432.218L-189.767,-3451.633L-172.066,-3452.560L-164.937,-3433.788L-158.210,-3414.985L-140.028,-3415.779L-134.965,-3435.096L-129.499,-3454.419L-111.784,-3455.038L-104.984,-3436.143L-98.586,-3417.226L-80.393,-3417.703L-74.994,-3436.929L-69.192,-3456.153L-51.469,-3456.462L-44.999,-3437.452L-38.932,-3418.426L-20.733,-3418.585L-15.000,-3437.714L-8.863,-3456.834L8.863,-3456.834L15.000,-3437.714L20.733,-3418.585L38.932,-3418.426L44.999,-3437.452L51.469,-3456.462L69.192,-3456.153L74.994,-3436.929L80.393,-3417.703L98.586,-3417.226L104.984,-3436.143L111.784,-3455.038L129.499,-3454.419L134.965,-3435.096L140.028,-3415.779L158.210,-3414.985L164.937,-3433.788L172.066,-3452.560L189.767,-3451.633L194.895,-3432.218L199.620,-3412.815L217.786,-3411.704L224.839,-3430.386L232.295,-3449.032L249.978,-3447.795L254.766,-3428.294L259.151,-3408.812L277.295,-3407.384L284.674,-3425.940L292.454,-3444.452L310.112,-3442.907L314.559,-3423.325L318.604,-3403.770L336.720,-3402.025L344.421,-3420.450L352.523,-3438.824L370.152,-3436.971L374.257,-3417.314L377.959,-3397.691L396.042,-3395.630L404.064,-3413.918L412.485,-3432.147L430.079,-3429.987L433.840,-3410.262L437.199,-3390.577L455.244,-3388.201L463.583,-3406.346L472.322,-3424.426L489.875,-3421.959L493.291,-3402.171L496.307,-3382.430L514.307,-3379.740L522.962,-3397.737L532.014,-3415.661L549.522,-3412.888L552.592,-3393.044L555.263,-3373.253L573.213,-3370.250L582.181,-3388.092L591.545,-3405.856L609.001,-3402.778L611.725,-3382.883L614.049,-3363.049L631.944,-3359.732L641.222,-3377.416L650.895,-3395.013L668.295,-3391.631L670.671,-3371.691L672.649,-3351.820L690.484,-3348.192L700.069,-3365.710L710.047,-3383.137L727.385,-3379.451L729.413,-3359.473L731.044,-3339.570L748.812,-3335.631L758.702,-3352.980L768.983,-3370.229L786.254,-3366.242L787.933,-3346.231L789.216,-3326.303L806.913,-3322.055L817.104,-3339.228L827.684,-3356.295L844.883,-3352.007L846.213,-3331.970L847.148,-3312.023L864.768,-3307.466L875.257,-3324.459L886.134,-3341.339L903.255,-3336.751L904.235,-3316.695L904.822,-3296.734L922.360,-3291.870L933.144,-3308.677L944.313,-3325.365L961.352,-3320.479L961.981,-3300.408L962.220,-3280.440L979.670,-3275.271L990.746,-3291.888L1002.205,-3308.378L1019.156,-3303.196L1019.435,-3283.117L1019.325,-3263.148L1036.682,-3257.675L1048.046,-3274.096L1059.791,-3290.383L1076.650,-3284.906L1076.578,-3264.825L1076.119,-3244.861L1093.379,-3239.086L1105.027,-3255.306L1117.055,-3271.386L1133.815,-3265.615L1133.393,-3245.539L1132.586,-3225.586L1149.742,-3219.511L1161.672,-3235.525L1173.979,-3251.393L1190.635,-3245.330L1189.863,-3225.264L1188.708,-3205.328L1205.755,-3198.954L1217.963,-3214.758L1230.544,-3230.409L1247.093,-3224.056L1245.970,-3204.007L1244.468,-3184.094L1261.401,-3177.424L1273.883,-3193.012L1286.735,-3208.441L1303.170,-3201.801L1301.698,-3181.774L1299.848,-3161.890L1316.663,-3154.926L1329.414,-3170.293L1342.534,-3185.495L1358.851,-3178.569L1357.029,-3158.572L1354.833,-3138.723L1371.523,-3131.466L1384.541,-3146.609L1397.924,-3161.580L1414.118,-3154.370L1411.947,-3134.407L1409.405,-3114.600L1425.966,-3107.053L1439.246,-3121.966L1452.889,-3136.701L1468.954,-3129.210L1466.435,-3109.288L1463.547,-3089.528L1479.974,-3081.693L1493.513,-3096.372L1507.410,-3110.867L1523.342,-3103.097L1520.477,-3083.221L1517.244,-3063.515L1533.532,-3055.395L1547.324,-3069.835L1561.473,-3084.085L1577.267,-3076.038L1574.055,-3056.216L1570.479,-3036.569L1586.622,-3028.165L1600.665,-3042.363L1615.060,-3056.364L1630.711,-3048.042L1627.153,-3028.279L1623.235,-3008.698L1639.229,-3000.014L1653.518,-3013.965L1668.155,-3027.712L1683.658,-3019.118L1679.756,-2999.420L1675.497,-2979.910L1691.337,-2970.948L1705.867,-2984.648L1720.742,-2998.137L1736.092,-2989.275L1731.847,-2969.648L1727.248,-2950.215L1742.930,-2940.978L1757.696,-2954.422L1772.804,-2967.650L1787.998,-2958.520L1783.411,-2938.971L1778.473,-2919.621L1793.991,-2910.112L1808.990,-2923.296L1824.327,-2936.258L1839.359,-2926.865L1834.432,-2907.398L1829.157,-2888.138L1844.507,-2878.359L1859.733,-2891.279L1875.294,-2903.972L1890.160,-2894.318L1884.893,-2874.940L1879.283,-2855.775L1894.460,-2845.730L1909.910,-2858.382L1925.689,-2870.801L1940.385,-2860.889L1934.781,-2841.606L1928.837,-2822.542L1943.836,-2812.233L1959.505,-2824.614L1975.499,-2836.756L1990.019,-2826.589L1984.079,-2807.407L1977.804,-2788.449L1992.620,-2777.880L2008.502,-2789.986L2024.706,-2801.847L2039.046,-2791.428L2032.773,-2772.352L2026.168,-2753.507L2040.798,-2742.681L2056.888,-2754.508L2073.296,-2766.084L2087.453,-2755.417L2080.847,-2736.453L2073.914,-2717.726L2088.353,-2706.647L2104.648,-2718.191L2121.256,-2729.479L2135.224,-2718.566L2128.288,-2699.721L2121.029,-2681.117L2135.273,-2669.788L2151.766,-2681.045L2168.568,-2692.042L2182.344,-2680.887L2175.081,-2662.166L2167.498,-2643.692L2181.542,-2632.115L2198.229,-2643.084L2215.221,-2653.785L2228.799,-2642.392L2221.211,-2623.800L2213.307,-2605.461L2227.146,-2593.641L2244.023,-2604.317L2261.198,-2614.720L2274.576,-2603.091L2266.664,-2584.635L2258.441,-2566.437L2272.072,-2554.377L2289.133,-2564.756L2306.487,-2574.859L2319.660,-2562.998L2311.427,-2544.682L2302.888,-2526.631L2316.306,-2514.335L2333.545,-2524.415L2351.073,-2534.213L2364.037,-2522.124L2355.486,-2503.955L2346.633,-2486.055L2359.835,-2473.527L2377.247,-2483.304L2394.943,-2492.795L2407.694,-2480.482L2398.827,-2462.465L2389.663,-2444.722L2402.644,-2431.966L2420.224,-2441.437L2438.084,-2450.618L2450.618,-2438.084L2441.437,-2420.224L2431.966,-2402.644L2444.722,-2389.663L2462.465,-2398.827L2480.482,-2407.694L2492.795,-2394.943L2483.304,-2377.247L2473.527,-2359.835L2486.055,-2346.633L2503.955,-2355.486L2522.124,-2364.037L2534.213,-2351.073L2524.415,-2333.545L2514.335,-2316.306L2526.631,-2302.888L2544.682,-2311.427L2562.998,-2319.660L2574.859,-2306.487L2564.756,-2289.133L2554.377,-2272.072L2566.437,-2258.441L2584.635,-2266.664L2603.091,-2274.576L2614.720,-2261.198L2604.317,-2244.023L2593.641,-2227.146L2605.461,-2213.307L2623.800,-2221.211L2642.392,-2228.799L2653.785,-2215.221L2643.084,-2198.229L2632.115,-2181.542L2643.692,-2167.498L2662.166,-2175.081L2680.887,-2182.344L2692.042,-2168.568L2681.045,-2151.766L2669.788,-2135.273L2681.117,-2121.029L2699.721,-2128.288L2718.566,-2135.224L2729.479,-2121.256L2718.191,-2104.648L2706.647,-2088.353L2717.726,-2073.914L2736.453,-2080.847L2755.417,-2087.453L2766.084,-2073.296L2754.508,-2056.888L2742.681,-2040.798L2753.507,-2026.168L2772.352,-2032.773L2791.428,-2039.046L2801.847,-2024.706L2789.986,-2008.502L2777.880,-1992.620L2788.449,-1977.804L2807.407,-1984.079L2826.589,-1990.019L2836.756,-1975.499L2824.614,-1959.505L2812.233,-1943.836L2822.542,-1928.837L2841.606,-1934.781L2860.889,-1940.385L2870.801,-1925.689L2858.382,-1909.910L2845.730,-1894.460L2855.775,-1879.283L2874.940,-1884.893L2894.318,-1890.160L2903.972,-1875.294L2891.279,-1859.733L2878.359,-1844.507L2888.138,-1829.157L2907.398,-1834.432L2926.865,-1839.359L2936.258,-1824.327L2923.296,-1808.990L2910.112,-1793.991L2919.621,-1778.473L2938.971,-1783.411L2958.520,-1787.998L2967.650,-1772.804L2954.422,-1757.696L2940.978,-1742.930L2950.215,-1727.248L2969.648,-1731.847L2989.275,-1736.092L2998.137,-1720.742L2984.648,-1705.867L2970.948,-1691.337L2979.910,-1675.497L2999.420,-1679.756L3019.118,-1683.658L3027.712,-1668.155L3013.965,-1653.518L3000.014,-1639.229L3008.698,-1623.235L3028.279,-1627.153L3048.042,-1630.711L3056.364,-1615.060L3042.363,-1600.665L3028.165,-1586.622L3036.569,-1570.479L3056.216,-1574.055L3076.038,-1577.267L3084.085,-1561.473L3069.835,-1547.324L3055.395,-1533.532L3063.515,-1517.244L3083.221,-1520.477L3103.097,-1523.342L3110.867,-1507.410L3096.372,-1493.513L3081.693,-1479.974L3089.528,-1463.547L3109.288,-1466.435L3129.210,-1468.954L3136.701,-1452.889L3121.966,-1439.246L3107.053,-1425.966L3114.600,-1409.405L3134.407,-1411.947L3154.370,-1414.118L3161.580,-1397.924L3146.609,-1384.541L3131.466,-1371.523L3138.723,-1354.833L3158.572,-1357.029L3178.569,-1358.851L3185.495,-1342.534L3170.293,-1329.414L3154.926,-1316.663L3161.890,-1299.848L3181.774,-1301.698L3201.801,-1303.170L3208.441,-1286.735L3193.012,-1273.883L3177.424,-1261.401L3184.094,-1244.468L3204.007,-1245.970L3224.056,-1247.093L3230.409,-1230.544L3214.758,-1217.963L3198.954,-1205.755L3205.328,-1188.708L3225.264,-1189.863L3245.330,-1190.635L3251.393,-1173.979L3235.525,-1161.672L3219.511,-1149.742L3225.586,-1132.586L3245.539,-1133.393L3265.615,-1133.815L3271.386,-1117.055L3255.306,-1105.027L3239.086,-1093.379L3244.861,-1076.119L3264.825,-1076.578L3284.906,-1076.650L3290.383,-1059.791L3274.096,-1048.046L3257.675,-1036.682L3263.148,-1019.325L3283.117,-1019.435L3303.196,-1019.156L3308.378,-1002.205L3291.888,-990.746L3275.271,-979.670L3280.440,-962.220L3300.408,-961.981L3320.479,-961.352L3325.365,-944.313L3308.677,-933.144L3291.870,-922.360L3296.734,-904.822L3316.695,-904.235L3336.751,-903.255L3341.339,-886.134L3324.459,-875.257L3307.466,-864.768L3312.023,-847.148L3331.970,-846.213L3352.007,-844.883L3356.295,-827.684L3339.228,-817.104L3322.055,-806.913L3326.303,-789.216L3346.231,-787.933L3366.242,-786.254L3370.229,-768.983L3352.980,-758.702L3335.631,-748.812L3339.570,-731.044L3359.473,-729.413L3379.451,-727.385L3383.137,-710.047L3365.710,-700.069L3348.192,-690.484L3351.820,-672.649L3371.691,-670.671L3391.631,-668.295L3395.013,-650.895L3377.416,-641.222L3359.732,-631.944L3363.049,-614.049L3382.883,-611.725L3402.778,-609.001L3405.856,-591.545L3388.092,-582.181L3370.250,-573.213L3373.253,-555.263L3393.044,-552.592L3412.888,-549.522L3415.661,-532.014L3397.737,-522.962L3379.740,-514.307L3382.430,-496.307L3402.171,-493.291L3421.959,-489.875L3424.426,-472.322L3406.346,-463.583L3388.201,-455.244L3390.577,-437.199L3410.262,-433.840L3429.987,-430.079L3432.147,-412.485L3413.918,-404.064L3395.630,-396.042L3397.691,-377.959L3417.314,-374.257L3436.971,-370.152L3438.824,-352.523L3420.450,-344.421L3402.025,-336.720L3403.770,-318.604L3423.325,-314.559L3442.907,-310.112L3444.452,-292.454L3425.940,-284.674L3407.384,-277.295L3408.812,-259.151L3428.294,-254.766L3447.795,-249.978L3449.032,-232.295L3430.386,-224.839L3411.704,-217.786L3412.815,-199.620L3432.218,-194.895L3451.633,-189.767L3452.560,-172.066L3433.788,-164.937L3414.985,-158.210L3415.779,-140.028L3435.096,-134.965L3454.419,-129.499L3455.038,-111.784L3436.143,-104.984L3417.226,-98.586L3417.703,-80.393L3436.929,-74.994L3456.153,-69.192L3456.462,-51.469L3437.452,-44.999L3418.426,-38.932z"
         style="stroke:#000000;fill:none" />
    </g>
    <g
       inkscape:label="Gear15"
       transform="translate(1047.9717,513.06729)"
       id="g3230">
      <path
         style="stroke:#000000;fill:none"
         d="M123.327,-14.194L135.714,-15.619L142.455,-14.973L162.186,-7.031L162.186,7.031L142.455,14.973L135.714,15.619L123.327,14.194L118.438,37.195L130.334,40.931L136.229,44.263L151.024,59.544L145.304,72.390L124.049,71.620L117.628,69.469L106.892,63.128L93.070,82.152L102.418,90.404L106.448,95.846L113.748,115.823L103.299,125.232L84.194,115.883L79.203,111.307L71.974,101.147L51.609,112.905L56.793,124.245L58.261,130.856L56.805,152.075L43.431,156.420L29.781,140.109L27.083,133.898L24.611,121.677L1.225,124.135L1.348,136.603L0.000,143.239L-9.961,162.032L-23.945,160.562L-29.781,140.109L-29.720,133.338L-27.007,121.168L-49.371,113.901L-54.330,125.341L-58.261,130.856L-75.004,143.972L-87.182,136.942L-84.194,115.883L-81.384,109.722L-73.955,99.707L-91.431,83.973L-100.614,92.407L-106.448,95.846L-127.078,101.018L-135.344,89.642L-124.049,71.620L-118.976,67.134L-108.116,61.007L-117.681,39.525L-129.501,43.495L-136.229,44.263L-157.180,40.597L-160.103,26.843L-142.455,14.973L-135.996,12.939L-123.583,11.758L-123.583,-11.758L-135.996,-12.939L-142.455,-14.973L-160.103,-26.843L-157.180,-40.597L-136.229,-44.263L-129.501,-43.495L-117.681,-39.525L-108.116,-61.007L-118.976,-67.134L-124.049,-71.620L-135.344,-89.642L-127.078,-101.018L-106.448,-95.846L-100.614,-92.407L-91.431,-83.973L-73.955,-99.707L-81.384,-109.722L-84.194,-115.883L-87.182,-136.942L-75.004,-143.972L-58.261,-130.856L-54.330,-125.341L-49.371,-113.901L-27.007,-121.168L-29.720,-133.338L-29.781,-140.109L-23.945,-160.562L-9.961,-162.032L-0.000,-143.239L1.348,-136.603L1.225,-124.135L24.611,-121.677L27.083,-133.898L29.781,-140.109L43.431,-156.420L56.805,-152.075L58.261,-130.856L56.793,-124.245L51.609,-112.905L71.974,-101.147L79.203,-111.307L84.194,-115.883L103.299,-125.232L113.748,-115.823L106.448,-95.846L102.418,-90.404L93.070,-82.152L106.892,-63.128L117.628,-69.469L124.049,-71.620L145.304,-72.390L151.024,-59.544L136.229,-44.263L130.334,-40.931L118.438,-37.195z"
         id="path3232" />
    </g>
    <g
       id="g3270"
       transform="translate(1047.9717,513.06729)"
       inkscape:label="Gear25">
      <path
         id="path3272"
         d="M219.054,-15.953L227.082,-16.538L238.261,-14.990L257.717,-7.671L257.717,7.671L238.261,14.990L227.082,16.538L219.054,15.953L216.139,39.025L224.060,40.455L234.504,44.734L251.528,56.662L247.713,71.521L227.048,73.772L215.835,72.491L208.204,69.928L199.644,91.550L206.960,94.906L216.012,101.647L229.534,117.434L222.144,130.878L201.568,127.919L191.026,123.889L184.273,119.510L170.604,138.323L176.856,143.393L183.946,152.174L193.118,170.828L182.617,182.011L163.424,174.028L154.215,167.504L148.763,161.582L130.844,176.405L135.640,182.870L140.323,193.139L144.568,213.487L131.615,221.708L115.010,209.203L107.713,200.593L103.905,193.501L82.863,203.403L85.900,210.857L87.883,221.968L86.934,242.733L72.344,247.474L59.370,231.232L54.444,221.078L52.519,213.262L29.676,217.620L30.763,225.595L29.921,236.850L23.838,256.727L8.527,257.690L0.000,238.732L-2.246,227.672L-2.167,219.623L-25.376,218.163L-26.306,226.158L-29.921,236.850L-40.757,254.589L-55.826,251.715L-59.370,231.232L-58.795,219.961L-56.717,212.184L-78.834,204.998L-81.723,212.511L-87.883,221.968L-102.790,236.455L-116.671,229.923L-115.010,209.203L-111.650,198.428L-107.703,191.413L-127.338,178.953L-132.005,185.511L-140.323,193.139L-158.365,203.464L-170.185,193.685L-163.424,174.028L-157.490,164.428L-151.922,158.615L-167.841,141.663L-173.992,146.854L-183.946,152.174L-203.989,157.688L-213.006,145.276L-201.568,127.919L-193.434,120.096L-186.595,115.850L-197.798,95.472L-205.047,98.971L-216.012,101.647L-236.795,102.004L-242.443,87.740L-227.048,73.772L-217.223,68.218L-209.544,65.806L-215.327,43.282L-223.218,44.868L-234.504,44.734L-254.723,39.911L-256.646,24.690L-238.261,14.990L-227.364,12.054L-219.326,11.628L-219.326,-11.628L-227.364,-12.054L-238.261,-14.990L-256.646,-24.690L-254.723,-39.911L-234.504,-44.734L-223.218,-44.868L-215.327,-43.282L-209.544,-65.806L-217.223,-68.218L-227.048,-73.772L-242.443,-87.740L-236.795,-102.004L-216.012,-101.647L-205.047,-98.971L-197.798,-95.472L-186.595,-115.850L-193.434,-120.096L-201.568,-127.919L-213.006,-145.276L-203.989,-157.688L-183.946,-152.174L-173.992,-146.854L-167.841,-141.663L-151.922,-158.615L-157.490,-164.428L-163.424,-174.028L-170.185,-193.685L-158.365,-203.464L-140.323,-193.139L-132.005,-185.511L-127.338,-178.953L-107.703,-191.413L-111.650,-198.428L-115.010,-209.203L-116.671,-229.923L-102.790,-236.455L-87.883,-221.968L-81.723,-212.511L-78.834,-204.998L-56.717,-212.184L-58.795,-219.961L-59.370,-231.232L-55.826,-251.715L-40.757,-254.589L-29.921,-236.850L-26.306,-226.158L-25.376,-218.163L-2.167,-219.623L-2.246,-227.672L-0.000,-238.732L8.527,-257.690L23.838,-256.727L29.921,-236.850L30.763,-225.595L29.676,-217.620L52.519,-213.262L54.444,-221.078L59.370,-231.232L72.344,-247.474L86.934,-242.733L87.883,-221.968L85.900,-210.857L82.863,-203.403L103.905,-193.501L107.713,-200.593L115.010,-209.203L131.615,-221.708L144.568,-213.487L140.323,-193.139L135.640,-182.870L130.844,-176.405L148.763,-161.582L154.215,-167.504L163.424,-174.028L182.617,-182.011L193.118,-170.828L183.946,-152.174L176.856,-143.393L170.604,-138.323L184.273,-119.510L191.026,-123.889L201.568,-127.919L222.144,-130.878L229.534,-117.434L216.012,-101.647L206.960,-94.906L199.644,-91.550L208.204,-69.928L215.835,-72.491L227.048,-73.772L247.713,-71.521L251.528,-56.662L234.504,-44.734L224.060,-40.455L216.139,-39.025z"
         style="stroke:#000000;fill:none" />
    </g>
    <g
       inkscape:label="Gear35"
       transform="translate(1047.9717,513.06729)"
       id="g3314">
      <path
         style="stroke:#000000;fill:none"
         d="M314.655,-17.243L318.279,-17.442L333.889,-14.995L353.234,-7.987L353.234,7.987L333.889,14.995L318.279,17.442L314.655,17.243L312.677,39.218L316.278,39.669L331.201,44.864L348.983,55.214L346.131,70.931L325.846,74.372L310.050,73.993L306.519,73.150L300.650,94.418L304.112,95.505L317.867,103.281L333.516,116.640L327.903,131.595L307.330,131.359L291.855,128.165L288.532,126.706L278.959,146.584L282.172,148.272L294.317,158.379L307.329,174.317L299.137,188.030L278.936,184.124L264.280,178.218L261.271,176.189L248.303,194.038L251.162,196.273L261.308,208.386L271.265,226.391L260.755,238.421L241.576,230.971L228.211,222.543L225.612,220.009L209.665,235.256L212.080,237.966L219.900,251.696L226.482,271.189L213.993,281.149L196.453,270.394L184.807,259.715L182.703,256.758L164.289,268.912L166.182,272.010L171.424,286.915L174.420,307.271L160.353,314.841L145.015,301.127L135.463,288.540L133.921,285.255L113.633,293.926L114.942,297.311L117.438,312.913L116.751,333.477L101.559,338.413L88.916,322.181L81.765,308.091L80.834,304.583L59.324,309.492L60.008,313.057L59.678,328.854L55.330,348.965L39.501,351.109L29.960,332.880L25.440,317.740L25.150,314.122L3.109,315.111L3.145,318.741L0.000,334.225L-7.869,353.236L-23.827,352.520L-29.960,332.880L-31.704,317.176L-31.343,313.564L-53.206,310.603L-53.819,314.180L-59.678,328.854L-70.815,346.155L-86.389,342.600L-88.916,322.181L-87.828,306.418L-86.828,302.929L-107.811,296.111L-109.053,299.521L-117.438,312.913L-131.486,327.947L-146.174,321.669L-145.015,301.127L-141.130,285.811L-139.523,282.557L-158.951,272.102L-160.782,275.236L-171.424,286.915L-187.930,299.199L-201.261,290.399L-196.453,270.394L-189.895,256.018L-187.733,253.103L-204.983,239.347L-207.344,242.104L-219.900,251.696L-238.334,260.835L-249.879,249.796L-241.576,230.971L-232.558,217.997L-229.909,215.515L-244.426,198.900L-247.241,201.190L-261.308,208.386L-281.077,214.087L-290.467,201.164L-278.936,184.124L-267.745,172.969L-264.696,170.999L-276.012,152.059L-279.192,153.811L-294.317,158.379L-314.787,160.458L-321.718,146.066L-307.330,131.359L-294.327,122.381L-290.976,120.988L-298.728,100.332L-302.169,101.487L-317.867,103.281L-338.379,101.672L-342.629,86.274L-325.846,74.372L-311.449,67.861L-307.903,67.088L-311.842,45.379L-315.434,45.902L-331.201,44.864L-351.096,39.618L-352.528,23.709L-333.889,14.995L-318.561,11.159L-314.934,11.032L-314.934,-11.032L-318.561,-11.159L-333.889,-14.995L-352.528,-23.709L-351.096,-39.618L-331.201,-44.864L-315.434,-45.902L-311.842,-45.379L-307.903,-67.088L-311.449,-67.861L-325.846,-74.372L-342.629,-86.274L-338.379,-101.672L-317.867,-103.281L-302.169,-101.487L-298.728,-100.332L-290.976,-120.988L-294.327,-122.381L-307.330,-131.359L-321.718,-146.066L-314.787,-160.458L-294.317,-158.379L-279.192,-153.811L-276.012,-152.059L-264.696,-170.999L-267.745,-172.969L-278.936,-184.124L-290.467,-201.164L-281.077,-214.087L-261.308,-208.386L-247.241,-201.190L-244.426,-198.900L-229.909,-215.515L-232.558,-217.997L-241.576,-230.971L-249.879,-249.796L-238.334,-260.835L-219.900,-251.696L-207.344,-242.104L-204.983,-239.347L-187.733,-253.103L-189.895,-256.018L-196.453,-270.394L-201.261,-290.399L-187.930,-299.199L-171.424,-286.915L-160.782,-275.236L-158.951,-272.102L-139.523,-282.557L-141.130,-285.811L-145.015,-301.127L-146.174,-321.669L-131.486,-327.947L-117.438,-312.913L-109.053,-299.521L-107.811,-296.111L-86.828,-302.929L-87.828,-306.418L-88.916,-322.181L-86.389,-342.600L-70.815,-346.155L-59.678,-328.854L-53.819,-314.180L-53.206,-310.603L-31.343,-313.564L-31.704,-317.176L-29.960,-332.880L-23.827,-352.520L-7.869,-353.236L-0.000,-334.225L3.145,-318.741L3.109,-315.111L25.150,-314.122L25.440,-317.740L29.960,-332.880L39.501,-351.109L55.330,-348.965L59.678,-328.854L60.008,-313.057L59.324,-309.492L80.834,-304.583L81.765,-308.091L88.916,-322.181L101.559,-338.413L116.751,-333.477L117.438,-312.913L114.942,-297.311L113.633,-293.926L133.921,-285.255L135.463,-288.540L145.015,-301.127L160.353,-314.841L174.420,-307.271L171.424,-286.915L166.182,-272.010L164.289,-268.912L182.703,-256.758L184.807,-259.715L196.453,-270.394L213.993,-281.149L226.482,-271.189L219.900,-251.696L212.080,-237.966L209.665,-235.256L225.612,-220.009L228.211,-222.543L241.576,-230.971L260.755,-238.421L271.265,-226.391L261.308,-208.386L251.162,-196.273L248.303,-194.038L261.271,-176.189L264.280,-178.218L278.936,-184.124L299.137,-188.030L307.329,-174.317L294.317,-158.379L282.172,-148.272L278.959,-146.584L288.532,-126.706L291.855,-128.165L307.330,-131.359L327.903,-131.595L333.516,-116.640L317.867,-103.281L304.112,-95.505L300.650,-94.418L306.519,-73.150L310.050,-73.993L325.846,-74.372L346.131,-70.931L348.983,-55.214L331.201,-44.864L316.278,-39.669L312.677,-39.218z"
         id="path3316" />
    </g>
    <g
       id="g3362"
       transform="translate(1047.9717,513.06729)"
       inkscape:label="Gear45">
      <path
         id="path3364"
         d="M410.210,-18.346L429.457,-14.997L448.742,-8.178L448.742,8.178L429.457,14.997L410.210,18.346L408.771,38.923L427.364,44.918L445.513,54.355L443.237,70.551L423.190,74.620L403.664,75.257L399.376,95.434L416.954,103.958L433.613,115.829L429.105,131.551L408.686,132.790L389.262,130.704L382.207,150.088L398.428,160.975L413.273,175.049L406.620,189.991L386.228,188.376L367.283,183.607L357.599,201.820L372.147,214.859L384.889,230.862L376.222,244.732L356.253,240.295L338.156,232.936L326.031,249.624L338.623,264.561L349.013,282.181L338.500,294.711L319.343,287.538L302.446,277.731L288.117,292.570L298.507,309.114L306.345,328.009L294.190,338.953L276.218,329.183L260.850,317.121L244.596,329.820L252.582,347.649L257.713,367.451L244.154,376.597L227.716,364.422L214.177,350.338L196.313,360.652L201.741,379.419L204.066,399.742L189.366,406.912L174.782,392.567L163.335,376.736L144.210,384.463L146.972,403.803L146.447,424.252L130.891,429.307L118.446,413.072L109.314,395.802L89.299,400.792L89.343,420.328L85.977,440.505L69.870,443.345L59.805,425.536L53.165,407.163L32.651,409.320L29.976,428.672L23.834,448.184L7.488,448.754L0.000,429.718L-4.018,410.600L-24.633,409.880L-29.976,428.672L-38.773,447.139L-55.039,445.429L-59.805,425.536L-61.124,406.045L-81.438,402.463L-89.343,420.328L-100.626,437.391L-116.496,433.434L-118.446,413.072L-117.039,393.587L-136.657,387.212L-146.972,403.803L-160.520,419.130L-175.684,413.003L-174.782,392.567L-170.677,373.467L-189.217,364.425L-201.741,379.419L-217.289,392.711L-231.453,384.533L-227.716,364.422L-220.993,346.079L-238.094,334.544L-252.582,347.649L-269.829,358.649L-282.718,348.579L-276.218,329.183L-267.007,311.955L-282.336,298.152L-298.507,309.114L-317.117,317.605L-328.479,305.840L-319.343,287.538L-307.824,271.759L-321.083,255.957L-338.623,264.561L-358.233,270.380L-367.847,257.148L-356.253,240.295L-342.650,226.273L-353.581,208.780L-372.147,214.859L-392.377,217.892L-400.055,203.451L-386.228,188.376L-370.806,176.383L-379.196,157.539L-398.428,160.975L-418.883,161.164L-424.477,145.794L-408.686,132.790L-391.746,123.061L-397.431,103.232L-416.954,103.958L-437.236,101.298L-440.637,85.300L-423.190,74.620L-405.060,67.343L-407.931,46.916L-427.364,44.918L-447.079,39.461L-448.220,23.145L-429.457,14.997L-410.490,10.314L-410.490,-10.314L-429.457,-14.997L-448.220,-23.145L-447.079,-39.461L-427.364,-44.918L-407.931,-46.916L-405.060,-67.343L-423.190,-74.620L-440.637,-85.300L-437.236,-101.298L-416.954,-103.958L-397.431,-103.232L-391.746,-123.061L-408.686,-132.790L-424.477,-145.794L-418.883,-161.164L-398.428,-160.975L-379.196,-157.539L-370.806,-176.383L-386.228,-188.376L-400.055,-203.451L-392.377,-217.892L-372.147,-214.859L-353.581,-208.780L-342.650,-226.273L-356.253,-240.295L-367.847,-257.148L-358.233,-270.380L-338.623,-264.561L-321.083,-255.957L-307.824,-271.759L-319.343,-287.538L-328.479,-305.840L-317.117,-317.605L-298.507,-309.114L-282.336,-298.152L-267.007,-311.955L-276.218,-329.183L-282.718,-348.579L-269.829,-358.649L-252.582,-347.649L-238.094,-334.544L-220.993,-346.079L-227.716,-364.422L-231.453,-384.533L-217.289,-392.711L-201.741,-379.419L-189.217,-364.425L-170.677,-373.467L-174.782,-392.567L-175.684,-413.003L-160.520,-419.130L-146.972,-403.803L-136.657,-387.212L-117.039,-393.587L-118.446,-413.072L-116.496,-433.434L-100.626,-437.391L-89.343,-420.328L-81.438,-402.463L-61.124,-406.045L-59.805,-425.536L-55.039,-445.429L-38.773,-447.139L-29.976,-428.672L-24.633,-409.880L-4.018,-410.600L0.000,-429.718L7.488,-448.754L23.834,-448.184L29.976,-428.672L32.651,-409.320L53.165,-407.163L59.805,-425.536L69.870,-443.345L85.977,-440.505L89.343,-420.328L89.299,-400.792L109.314,-395.802L118.446,-413.072L130.891,-429.307L146.447,-424.252L146.972,-403.803L144.210,-384.463L163.335,-376.736L174.782,-392.567L189.366,-406.912L204.066,-399.742L201.741,-379.419L196.313,-360.652L214.177,-350.338L227.716,-364.422L244.154,-376.597L257.713,-367.451L252.582,-347.649L244.596,-329.820L260.850,-317.121L276.218,-329.183L294.190,-338.953L306.345,-328.009L298.507,-309.114L288.117,-292.570L302.446,-277.731L319.343,-287.538L338.500,-294.711L349.013,-282.181L338.623,-264.561L326.031,-249.624L338.156,-232.936L356.253,-240.295L376.222,-244.732L384.889,-230.862L372.147,-214.859L357.599,-201.820L367.283,-183.607L386.228,-188.376L406.620,-189.991L413.273,-175.049L398.428,-160.975L382.207,-150.088L389.262,-130.704L408.686,-132.790L429.105,-131.551L433.613,-115.829L416.954,-103.958L399.376,-95.434L403.664,-75.257L423.190,-74.620L443.237,-70.551L445.513,-54.355L427.364,-44.918L408.771,-38.923z"
         style="stroke:#000000;fill:none" />
    </g>
    <path
       sodipodi:type="arc"
       style="fill:#000000;fill-opacity:1;stroke:none"
       id="path3389"
       sodipodi:cx="217.45688"
       sodipodi:cy="431.68991"
       sodipodi:rx="48.908989"
       sodipodi:ry="63.957905"
       d="m 266.36587,431.68991 a 48.908989,63.957905 0 1 1 -97.81798,0 48.908989,63.957905 0 1 1 97.81798,0 z"
       transform="matrix(0.18111738,0,0,0.13850153,1008.5865,453.27758)" />
    <polygon
       transform="matrix(1.25,0,0,1.25,-276.56232,-115.84039)"
       style="fill:none;stroke:#000000;stroke-linecap:round;stroke-linejoin:round"
       points="549.994,943.293 559.641,973.891 574.055,973.891 583.703,943.293 597.885,943.293 607.532,973.891 621.946,973.891 631.593,943.293 645.775,943.293 655.423,973.891 669.836,973.891 679.484,943.293 693.666,943.293 703.313,973.891 717.726,973.891 727.374,943.293 741.556,943.293 751.204,973.891 765.617,973.891 775.264,943.293 789.447,943.293 799.094,973.891 813.508,973.891 823.155,943.293 837.337,943.293 846.985,973.891 861.398,973.891 871.046,943.293 885.227,943.293 894.875,973.891 909.289,973.891 918.936,943.293 933.118,943.293 942.765,973.891 957.179,973.891 966.827,943.293 981.009,943.293 990.656,973.891 1005.07,973.891 1014.717,943.293 1028.899,943.293 1038.547,973.891 1052.96,973.891 1062.608,943.293 1076.79,943.293 1086.437,973.891 1100.85,973.891 1110.498,943.293 1124.68,943.293 1134.328,973.891 1148.742,973.891 1158.388,943.293 1172.57,943.293 1182.219,973.891 1196.632,973.891 1206.279,943.293 1220.461,943.293 1230.109,973.891 1244.522,973.891 1254.17,943.293 1268.351,943.293 1278,973.891 1292.413,973.891 1302.06,943.293 1316.242,943.293 1325.89,973.891 1340.303,973.891 1349.951,943.293 1364.133,943.293 1373.78,973.891 1388.193,973.891 1397.842,943.293 1412.023,943.293 1421.671,973.891 1436.084,973.891 1445.732,943.293 1459.914,943.293 1469.561,973.891 1483.974,973.891 1493.623,943.293 1507.804,943.293 1517.452,973.891 1531.865,973.891 1541.513,943.293 1555.695,943.293 1565.343,973.891 1579.756,973.891 1589.403,943.293 1603.586,943.293 1613.232,973.891 1627.646,973.891 1637.294,943.293 1651.476,943.293 1661.123,973.891 1661.123,1030.584 463.861,1030.584 463.861,973.891 478.274,973.891 487.922,943.293 502.103,943.293 511.751,973.891 526.165,973.891 535.812,943.293 "
       id="polygon3441" />
  </g>
</svg>
